<svg width="364" height="164" viewBox="0 0 364 164" fill="none" xmlns="http://www.w3.org/2000/svg">
<g filter="url(#filter0_d_49_254)">
<path d="M320.502 30.5V23H318.002L320.502 30.5Z" fill="white" fill-opacity="0.5" shape-rendering="crispEdges"/>
<path d="M323.002 23H320.502V30.5L323.002 23Z" fill="white" fill-opacity="0.5" shape-rendering="crispEdges"/>
<path d="M44.0018 93.5V58.5L36.0018 54L50.5018 48L36.0018 41.5L50.5018 36L36.0018 30.5L50.5018 23.5L44.0018 20V1H117.502M44.0018 93.5H23.0018M44.0018 93.5H64.5018M30.0018 100H43.7518M43.7518 100H57.5018M43.7518 100V155H320.502V84L312.502 80.5L327.502 74.5L312.502 68L327.502 61.5L312.502 54L327.502 48L320.502 45V30.5M117.502 1H320.502V23M117.502 1V20L125.502 22.5L110.502 29L125.502 35.5L110.502 42L125.502 49L110.502 55L117.502 58.5V93.5M320.502 23H323.002L320.502 30.5M320.502 23V30.5M320.502 23H318.002L320.502 30.5M117.502 93.5H137.502M117.502 93.5H97.5018M117.252 155V100M104.502 100H117.252M117.252 100H130.002M192.002 1V20L198.002 22.5L184.002 29.5L198.002 35L184.002 42L198.002 48L184.002 54.5L192.002 58V93H177.502M191.502 93H204.502M191.502 100.5V155M191.502 100.5H172.002M191.502 100.5H211.002M265.502 1.5V20L272.502 22.5L257.502 29L272.502 35L257.502 41L272.502 48L257.502 54.5L265.502 58V93M265.502 93H252.502M265.502 93H279.002M245.502 99.5H265.502M265.502 99.5H285.502M265.502 99.5V155M82.2358 36.0166C82.2358 39.0917 82.9104 42.0457 82.9104 45.1228M84.2593 42.8742C82.345 42.8742 80.2305 43.1958 78.301 42.8742C76.0285 42.4955 82.4085 37.4177 82.7979 37.0283M87.8569 36.2415C83.8911 36.2415 83.9421 45.7973 88.6438 45.7973C92.1155 45.7973 90.3055 38.2111 88.5314 37.0284M95.9513 45.1227C96.9877 45.1227 99.646 45.4772 99.0242 44.6481C98.1383 43.4669 97.0538 42.4667 96.6758 40.9007C95.5686 36.3136 101.408 34.0763 104.695 36.6911C106.613 38.2169 105.188 41.4149 104.514 42.9867C104.035 44.1045 101.49 45.7942 102.659 46.1283C103.099 46.254 105.078 45.5014 105.282 45.9097M9.44229 36.6653C8.75625 36.7014 6.33916 36.603 6.02976 36.9704C5.65832 37.4115 5.34312 38.6484 5.12578 39.2642C4.54797 40.9014 6.1156 39.1427 6.69644 39.8688C7.75011 41.1859 8.8009 40.3512 8.41966 42.8293C8.12181 44.7653 5.06928 45.6164 5.06928 43.2756M13.7136 36.6653C12.1515 36.6653 11.9581 38.7682 11.6797 40.0213C11.1258 42.5137 11.8739 43.4547 13.7588 44.6542C16.666 46.5043 19.0341 36.9704 14.7306 36.9704M22.1545 45.2077C26.2987 45.2077 23.4766 44.1636 23.4766 41.8008C23.4766 39.6045 24.9071 36.2686 27.4654 36.36C30.8138 36.4796 30.4921 39.7193 29.4768 41.75C29.271 42.1615 27.6614 44.5441 27.8722 44.7783C28.2754 45.2263 29.8998 44.5039 30.4938 44.8009M151.638 38.0316C153.99 35.0925 155.804 39.7159 154.285 42.0389C153.439 43.3343 152.867 45.138 151.896 46.3036C151.578 46.6846 155.256 45.9727 155.774 45.9727M163.716 37.039C160.505 36.6823 158.044 38.7705 161.859 40.3846C164.94 41.688 160.804 49.7776 159.58 43.6566M169.671 45.4763C174.566 45.4763 171.657 45.5705 171.657 42.3238C171.657 39.613 172.027 36.2117 175.462 36.2117C179.033 36.2117 178.064 39.9499 177.291 42.0113C176.054 45.3097 175.37 45.6418 179.267 45.6418M226.099 37.8648C226.757 36.0878 228.682 36.5389 229.604 37.7246C230.961 39.4692 229.386 41.943 228.35 43.325C226.094 46.333 228.924 45.2956 231.707 45.2956M235.913 35.9019C232.717 36.9247 232.099 46.3733 236.754 45.7083C238.406 45.4724 237.74 37.3061 236.614 36.7431M243.204 45.7162C244.147 45.7162 245.797 46.6929 246.717 45.9265C247.571 45.2143 245.475 44.2712 244.995 43.1925C242.974 38.644 245.258 35.4443 250.042 35.6215C254.228 35.7765 252.394 41.5113 251.444 43.4106C251.119 44.0609 249.301 45.2634 250.292 45.4436C251.418 45.6484 252.411 45.7162 253.579 45.7162M326.844 30.0576C327.198 30.0576 328.056 29.8715 328.778 29.7031M328.778 29.7031C329.77 29.4719 330.504 29.2741 329.323 29.6373C329.088 29.7098 328.909 29.7284 328.778 29.7031ZM328.778 29.7031C327.695 29.4938 329.89 26.2721 330.294 25.5982C330.749 24.8401 333.746 20.3929 331.233 21.3816C330.63 21.619 328.852 20.8959 330.238 20.8959C331.575 20.8959 333.317 20.8123 334.576 21.2322M7.60449 106.739C7.78391 104.766 9.77754 102.899 11.2283 105.076C12.6205 107.164 10.7143 108.366 9.76591 110.213C9.45036 110.828 7.03792 113.535 7.90898 113.262C9.14368 112.876 10.5369 113.842 11.6958 113.455M16.3274 104.501C12.7709 105.639 12.8685 114.053 17.6225 113.687C19.3489 113.554 20.5758 104.192 17.4853 104.192M22.966 104.501C21.7987 103.567 21.6598 109.19 22.0011 109.857C22.6712 111.168 23.761 113.357 25.5563 113.052C28.9021 112.484 27.3435 104.269 24.2783 104.269M31.6117 105.041C31.637 104.838 34.6791 104.81 35.0854 104.81M33.1556 105.273C33.3804 107.295 35.0615 109.752 35.896 111.607C36.4067 112.742 36.6819 114.144 37.4785 112.529C37.9285 111.616 38.0696 110.622 38.3876 109.656C38.5388 109.197 40.4772 104.529 39.9015 104.308C37.2484 103.287 40.8254 104.082 41.5697 104.578M81.8647 108.669C82.4198 109.163 83.9826 107.388 84.0262 108.129C84.1169 109.672 84.3349 111.193 84.3349 112.743C84.3349 113.375 84.6233 116.396 83.949 116.68C82.7344 117.192 84.8583 116.852 85.57 116.852M93.5982 107.666C91.6406 107.488 89.7424 110.062 89.3348 112.502M89.3348 112.502C89.1148 113.819 89.3288 115.097 90.2017 115.883C91.9821 117.485 93.2726 115.213 92.9077 113.571C92.4549 111.533 90.85 111.789 89.3348 112.502ZM89.3348 112.502C89.2633 112.536 89.1919 112.571 89.121 112.606M97.9982 107.743C97.8157 106.282 96.0684 110.242 96.0684 111.714C96.0684 112.999 96.3431 116.164 98.2469 116.234C101.03 116.337 100.856 107.99 98.307 106.971M105.64 107.666C106.304 107.721 110.061 108.264 108.96 107.897M107.416 107.589C109.169 108.226 109.485 113.037 109.839 114.57C110.586 117.808 111.19 114.49 112.125 112.855C112.349 112.462 115.051 107.666 113.973 107.666C111.141 107.666 114.455 107.589 115.521 107.589M153.5 107.588C154.501 107.463 155.112 104.579 155.276 106.988C155.409 108.937 155.353 110.912 155.353 112.872C155.353 113.811 155.608 115.13 155.349 116.037C155.34 116.067 155.303 116.093 155.246 116.114M155.246 116.114C154.934 116.233 154.037 116.229 154.092 116.217C154.321 116.165 154.763 116.143 155.246 116.114ZM155.246 116.114C156.052 116.067 156.971 116.005 157.206 115.771M162.455 106.662C160.319 106.792 160.554 111.575 160.757 112.945C160.896 113.889 162.79 116.758 164.076 115.54C166.145 113.579 167.084 106.431 163.072 106.431M170.329 106.74C167.004 105.34 166.466 114.517 169.805 115.883C173.966 117.585 175.825 107.048 171.101 107.048M177.353 106.662H179.249C178.971 106.662 180.105 109.43 180.402 110.209C180.769 111.168 181.376 113.771 182.174 114.455C182.989 115.153 182.742 115.613 182.928 114.519C183.043 113.843 183.206 113.194 183.374 112.529C183.775 110.951 184.627 109.459 184.978 107.88C185.114 107.267 185.312 107.041 184.652 106.817C184.426 106.74 183.18 106.662 183.606 106.662C184.38 106.662 186.312 106.358 186.848 106.894M237.867 106.813C236.056 106.813 236.631 108.291 237.501 109.65M237.501 109.65C238.085 110.561 238.801 111.419 239.021 111.744C240.025 113.226 240.958 115.136 238.487 115.136C236.658 115.136 235.386 113.458 235.386 111.753C235.386 110.911 236.526 110.48 237.04 109.99C237.168 109.868 237.325 109.756 237.501 109.65ZM237.501 109.65C238.411 109.104 239.812 108.707 240.13 107.784C240.473 106.789 238 106.803 238.849 107.227M246.603 107.124C242.712 106.77 242.436 113.957 246.241 114.257C247.049 114.321 247.041 114.671 247.585 113.732C248.13 112.79 248.171 111.638 248.208 110.578L248.208 110.564C248.275 108.649 248.853 108.003 247.223 106.917M252.961 106.71C253.449 106.71 253.94 106.688 254.433 106.673M254.433 106.673C254.7 106.665 254.968 106.658 255.236 106.658H255.238M254.433 106.673C254.6 106.587 254.88 106.588 255.238 106.658M254.433 106.673C254.136 106.826 254.195 107.254 254.811 108.054C256.002 109.606 256.783 111.535 257.51 113.333C257.658 113.699 258.858 116.206 258.452 114.682C258.103 113.372 259.567 111.397 259.957 110.214C260.273 109.255 261.856 107.01 260.652 106.695M255.238 106.658C255.747 106.658 256.394 106.546 256.89 106.67C257.365 106.789 255.896 106.815 255.419 106.699C255.357 106.683 255.296 106.67 255.238 106.658ZM260.652 106.695C260.56 106.671 260.451 106.658 260.324 106.658C260.211 106.658 260.367 106.674 260.652 106.695ZM260.652 106.695C261.265 106.741 262.475 106.814 262.886 106.814M331.616 59.5955C331.616 57.835 334.02 57.2388 335.215 57.916C337.24 59.0632 335.589 61.4132 334.78 62.7326C333.841 64.264 332.787 65.7311 331.843 67.249C331.424 67.9229 332.07 67.4329 332.576 67.4329C333.073 67.4329 336.565 67.8068 336.776 67.3842M341.157 58.1836C336.809 58.401 339.16 69.0864 342.304 66.9351C344.243 65.6081 343.677 63.3967 343.859 61.3558C343.933 60.5279 343.566 59.3667 343.083 58.6704C342.36 57.6301 342.823 57.4534 341.352 57.4534M349.627 66.8972C349.13 66.8972 350.641 66.9 351.109 66.7323C351.711 66.5166 352.422 66.4706 353.056 66.4591C353.963 66.4426 353.796 66.3968 353.054 66.067C352.219 65.696 351.321 64.5158 351.163 63.6114C350.822 61.6555 350.309 59.1518 352.491 57.9699C353.111 57.634 355.189 57.9286 355.831 58.3404C356.781 58.9492 357.873 59.7597 358.087 60.9583C358.412 62.7787 357.362 63.9717 356.762 65.5558C356.528 66.1714 355.097 67.6377 356.075 67.4354C356.985 67.2471 357.903 67.2867 358.828 67.2867" stroke="white" stroke-opacity="0.5" stroke-width="2" stroke-linejoin="round" shape-rendering="crispEdges"/>
</g>
<defs>
<filter id="filter0_d_49_254" x="0.00012207" y="0" width="363.148" height="164" filterUnits="userSpaceOnUse" color-interpolation-filters="sRGB">
<feFlood flood-opacity="0" result="BackgroundImageFix"/>
<feColorMatrix in="SourceAlpha" type="matrix" values="0 0 0 0 0 0 0 0 0 0 0 0 0 0 0 0 0 0 127 0" result="hardAlpha"/>
<feOffset dy="4"/>
<feGaussianBlur stdDeviation="2"/>
<feComposite in2="hardAlpha" operator="out"/>
<feColorMatrix type="matrix" values="0 0 0 0 0 0 0 0 0 0 0 0 0 0 0 0 0 0 0.25 0"/>
<feBlend mode="normal" in2="BackgroundImageFix" result="effect1_dropShadow_49_254"/>
<feBlend mode="normal" in="SourceGraphic" in2="effect1_dropShadow_49_254" result="shape"/>
</filter>
</defs>
</svg>
