<svg width="183" height="119" viewBox="0 0 183 119" fill="none" xmlns="http://www.w3.org/2000/svg">
<path opacity="0.5" d="M10.4319 86.6738C9.03166 86.6738 4.63624 87.4016 3.58371 88.5241C2.59792 89.5754 2.31291 89.6461 2.67023 91.3609C2.97545 92.8257 4.01773 92.3375 4.69252 93.2971C7.23589 96.9136 17.2113 98.5846 20.9857 98.5846C27.6948 98.5846 37.3822 97.6254 40.9615 90.7544C42.4588 87.8802 34.3984 86.0121 32.5622 86.0121M2.05549 90.0927C-0.147044 90.0927 1.76823 94.2182 1.84867 95.2761C1.99969 97.2625 4.11981 97.8673 5.69791 98.4499C11.0418 100.423 15.885 100.68 21.6636 100.68C26.5158 100.68 32.9929 100.629 37.5259 98.695C39.0776 98.033 40.9573 96.9642 41.1511 95.0004C41.2358 94.1426 42.2446 91.4509 41.1454 90.8647M10.6387 86.4533C10.6387 81.5586 11.7763 76.7087 11.7763 71.7914C11.7763 66.3212 13.9847 62.6944 16.8952 58.4469C20.4112 53.3157 31.5222 54.2499 36.5952 54.2499C41.0733 54.2499 45.475 53.2573 50.0159 53.2573C53.5047 53.2573 58.0877 52.9587 61.5176 52.0442M32.3562 88.2933C32.3562 86.4007 32.7509 84.5562 33.0659 82.7084C33.5298 79.9875 34.3833 79.4869 36.9372 78.5433C42.4633 76.5015 48.0658 76.4194 53.827 75.9805C56.3579 75.7878 60.0506 74.1496 62.5729 75.0463M16.9395 65.3693C17.2047 62.5406 21.8371 59.5571 23.9871 58.7928M10.4205 86.6962C11.7364 87.164 12.6293 89.4816 14.0226 90.2246C14.8152 90.6472 16.1544 91.1653 17.0472 91.2058C19.8355 91.3323 22.1628 91.7735 25.0443 91.3467C27.6951 90.9541 30.0068 88.2933 32.5324 88.2933M19.8525 76.2315C18.8996 76.1044 21.6717 75.5225 22.4779 74.9661C23.6491 74.1579 24.369 72.9731 25.431 72.067M19.1353 79.8861C20.7831 79.8861 23.3017 77.5869 24.4393 76.4393C25.875 74.9909 28.4648 73.1602 29.3359 71.3022M18.8166 83.2856C19.786 83.1707 22.3482 80.8867 23.0402 80.2307C24.5088 78.8385 26.3065 77.3093 27.9369 76.1843C29.4548 75.1368 30.9043 73.4291 32.3642 72.2181C33.4312 71.3331 34.4365 69.5597 35.6316 68.9225M13.5569 86.6851C18.3033 86.6851 23.8849 83.1121 27.7509 80.4999C31.9162 77.6854 36.2374 73.179 39.2177 69.0925M16.1867 89.9146C16.3327 88.6695 22.7246 85.8496 23.6512 85.3252C26.2751 83.8404 28.8983 82.1281 31.2662 80.2448C35.6408 76.7655 40.9083 74.3051 43.9992 69.1774M40.8115 77.2514C41.0215 76.2437 44.2763 74.9935 45.1547 74.0974C46.1196 73.1132 46.9006 71.9575 47.7447 70.8773M48.5416 76.2315C50.0451 74.17 51.9593 72.5462 52.845 70.0273M54.9171 75.9765C56.3905 74.4051 58.4257 72.826 59.2204 70.7072M51.9684 76.0615C52.1038 75.34 54.2609 73.7394 54.8551 73.1058C55.834 72.0618 56.6372 70.5579 57.0687 69.1774M59.7876 74.7904C60.6639 74.7904 61.3921 74.1365 62.3106 74.1177C63.5552 74.0921 65.2017 72.3608 65.2017 71.0345C65.2017 68.4723 66.2529 66.0158 66.2529 63.4418C66.2529 61.1909 66.3513 58.5438 65.4119 56.4845C64.7968 55.1361 63.034 51.8068 61.417 51.8068M62.2025 74.1321C62.2025 77.2912 63.688 78.3524 65.3616 80.5338C67.2669 83.0172 69.8175 79.0273 70.6484 77.5874C73.3781 72.8568 73.6336 67.2178 73.6336 61.6306C73.6336 60.0403 73.9609 57.8784 73.5284 56.3505C73.2235 55.2735 72.8941 52.6292 72.0682 51.9245C70.6461 50.7113 70.651 47.5359 68.9333 46.4891C67.9586 45.8951 67.8612 44.7875 66.6034 44.5436C65.569 44.343 64.9128 44.2702 63.8205 44.315C61.1513 44.4244 60.2366 49.9939 60.2366 52.0798M65.3133 44.1388C65.3242 44.0459 66.6981 44.1498 66.8829 44.1388C67.5605 44.0987 68.2341 43.9205 68.9302 43.9205C70.9008 43.9205 72.8071 45.3833 73.6351 47.2966C75.8119 52.3264 76.2489 57.6303 76.744 63.1218C77.1898 68.0665 76.1896 74.0824 73.5707 78.2718C72.6159 79.7992 68.6809 81.4013 67.0194 81.4013M70.841 80.2367C73.8003 80.2367 74.5211 81.605 76.7781 78.4415C79.745 74.283 78.8936 66.9847 78.8936 62.0785C78.8936 57.1909 78.604 52.4944 77.3923 47.8099C76.4094 44.0101 73.4639 43.8476 70.6362 43.8476M78.0907 51.4304C83.8296 51.4304 89.5191 51.0129 95.2501 51.0129M78.5483 73.6264C82.549 73.6264 86.6205 73.1843 90.6254 72.8856C97.6339 72.3629 104.662 72.528 111.681 71.9975C117.702 71.5425 123.638 71.8838 129.655 71.8838C132.144 71.8838 136.398 72.1124 138.65 70.6716M75.8488 79.233C77.7047 79.3319 80.0975 79.4742 81.7097 78.328C82.4253 77.8193 83.6779 74.354 82.5977 73.778M76.7012 45.8971C80.0834 45.8971 82.3846 47.9086 82.3846 51.6552M95.0489 50.9811C97.0407 50.9811 99.7 53.6727 100.717 55.2094C101.417 56.2667 102.71 57.0036 103.422 58.1128C104.092 59.1576 104.841 60.0739 105.569 61.0444C106.902 62.8215 110.424 64.6599 112.488 63.8038C114.748 62.8666 117.983 62.0257 118.996 59.3249C118.996 57.5961 119.525 55.8757 119.525 54.1381C119.525 52.0835 119.313 50.0828 119.313 48.0493M119.261 48.0493C121.247 49.4108 124.434 48.2748 126.644 48.2748C129.758 48.2748 132.846 48.0493 135.966 48.0493M95.7177 45.686C95.7177 46.7347 96 47.778 96 48.8372C96 49.4557 95.8682 50.0757 95.8682 50.6838M95.4637 45.9526C95.4392 45.9526 93.7926 44.2253 93.707 44.0297C93.3107 43.1242 93.3556 42.2077 93.3556 41.222M119.444 47.9198C119.168 47.8852 119.211 46.8666 119.322 46.6656C119.689 45.9986 119.688 46.3183 120.19 46.2336C120.945 46.1066 120.975 43.205 121.025 42.5542C121.066 42.0096 122.364 41.353 122.66 40.8108C123.088 40.0255 122.738 38.5059 122.738 37.6154M93.3995 41.3625C94.3027 42.3257 92.9975 41.0263 92.7749 40.509C92.6375 40.1899 92.0541 39.3448 92.2869 39.5931C92.7215 40.0565 93.1471 40.4405 93.5459 40.9566C95.7396 43.7952 100.104 44.8758 103.364 45.5519C105.514 45.9978 107.805 45.6963 109.96 45.5754C111.606 45.4829 113.743 45.7968 115.313 45.2059C116.638 44.7069 118.198 44.4811 119.331 43.5145C119.989 42.9537 120.59 42.0281 121.464 41.9246M92.3455 39.5359C91.7623 39.3027 92.038 36.0597 92.038 35.3465C92.038 34.9233 93.4291 36.4726 93.7411 36.7725C94.4695 37.4726 95.0941 38.202 95.881 38.836C97.3884 40.0506 99.1767 41.1906 100.959 41.8675C102.579 42.4829 104.571 42.459 106.278 42.6637C109.956 43.105 113.588 42.5214 117.094 41.3835C118.293 40.9942 119.826 40.6672 120.717 39.6192C120.899 39.4058 122.971 38.1929 122.606 37.8029M92.3015 35.5546C91.4582 35.4547 92.0538 32.6481 92.1259 31.9949C92.1913 31.4019 92.9852 32.7616 93.4337 33.119C93.8935 33.4856 94.2829 33.9869 94.8025 34.264C95.7159 34.7511 96.4801 35.6893 97.3937 36.2338C101.714 38.8082 106.247 38.8827 111.036 39.5099C113.198 39.7931 115.916 40.3265 117.819 38.9946C119.116 38.0864 120.288 36.9779 121.288 35.7056C121.856 34.9842 122.902 33.8337 123.131 32.7933M123.131 32.7933C123.161 32.6603 123.177 32.5291 123.177 32.4009C123.177 31.9386 123.16 32.2186 123.131 32.7933ZM123.131 32.7933C123.089 33.65 123.021 35.1616 122.947 35.8461C122.886 36.4146 122.474 37.0224 122.474 37.5687M92.038 32.1354C92.038 28.6808 95.8438 28.248 98.1867 27.311M123.309 32.7443C123.612 32.062 122.888 30.7653 122.516 30.2151C122.29 29.8816 122.147 29.437 121.708 29.3746C121.5 29.3451 121.108 29.4356 120.981 29.2315M97.9165 27.2725C99.0354 28.7044 101.349 29.116 103.033 29.5113C105.281 30.0386 107.497 30.2866 109.782 30.5133C112.211 30.7543 114.711 30.3129 117.154 30.3129C117.818 30.3129 121.063 30.4486 121.063 29.2823M98.1581 27.118C98.0978 26.8284 97.8257 25.5004 98.2226 25.6292C99.7882 26.1374 101.459 26.2168 102.996 26.7086C105.51 27.5129 108.333 27.4633 110.918 27.9711C113.328 28.4447 115.66 28.3417 118.077 28.3032C119.486 28.2808 120.011 27.7528 120.869 28.9732M97.0951 29.8491C95.3271 29.4054 95.3151 33.5156 98.0132 33.1959C98.8966 33.0912 99.2684 30.6367 98.9582 29.975C98.675 29.371 97.5369 29.6945 96.9984 29.6945M104.827 32.8896C102.38 32.8896 102.486 36.6174 104.816 36.7031C106.093 36.7501 106.204 35.3491 106.129 34.261C106.106 33.9354 104.954 33.1636 104.633 32.9927M98.092 25.6002C95.9901 25.6002 94.9535 23.21 93.2581 22.4111C91.7589 21.7046 89.7907 19.9641 88.9436 18.4585C87.3373 15.6034 84.7319 12.8529 85.9342 9.1344C86.3528 7.83993 89.1923 4.76942 90.5655 4.56021C92.4101 4.27917 94.2769 2.80802 96.1439 2.31027C98.4763 1.6884 101.177 1.42602 103.585 1.263C106.246 1.0828 109.809 0.686596 112.417 1.45894C115.226 2.29113 118.413 1.68086 121.014 3.52983C122.571 4.6372 124.42 5.20482 125.93 6.47231C128.455 8.59203 131.22 12.3076 131.22 15.9079C131.22 19.6346 130.095 22.5043 127.33 24.7826C125.953 25.9176 124.008 26.3521 122.585 27.3636C122.172 27.6573 120.138 27.59 119.93 28.0325M96.4947 16.0351C96.5233 15.7611 99.9857 14.791 100.484 14.4632C101.396 13.8626 103.417 13.6582 104.075 12.7229M96.2842 15.9229C96.4031 17.0642 99.2344 18.5674 99.969 19.1665C100.976 19.9873 102.626 19.9851 103.782 20.5138C107.093 22.0269 110.848 20.9192 114.234 20.9192M111.866 14.1263C111.866 15.0417 113.156 20.7417 114.129 21.0876M104.233 12.7228C103.481 12.6337 102.165 10.7598 102.127 10.0281C102.078 9.08269 104.382 8.09432 105.128 8.62467M103.97 12.7229C105.223 12.7229 106.489 13.3816 107.745 13.618C108.736 13.8045 111.245 14.4518 112.024 13.6212M112.076 10.7019C110.819 10.7019 109.229 11.4534 107.643 11.1074C106.383 10.8325 105.22 9.97916 104.97 8.51253C104.83 7.31855 103.64 6.32458 102.891 5.45596C102.585 5.10239 101.966 5.06421 102.022 4.48288C102.116 3.51595 103.218 3.51601 103.853 3.51605L103.864 3.51605C106.025 3.51605 108.027 3.83081 110.126 4.30199C112.081 4.74103 114.354 4.86158 116.232 5.59942C117.063 5.92614 119.087 6.26501 119.487 7.16507C119.847 7.97515 118.307 8.24253 117.679 8.59661C116.876 9.05001 115.795 9.6467 114.895 9.81607C114.404 9.90861 113.789 10.1456 113.328 10.3213C113.025 10.4366 111.853 10.9525 112.761 10.5895M91.0201 12.723C88.9501 12.9989 95.1966 12.6485 97.2726 12.4298C98.0542 12.3475 102.759 12.08 102.759 11.0949M90.4937 12.6666C89.1752 12.6666 90.7753 9.99808 90.9382 9.66633C91.5798 8.36013 92.8081 7.45368 94.0089 6.77206C96.7603 5.21027 101.725 5.10211 103.549 8.34395M112.761 12.7228C115.939 13.0617 115.397 18.1442 117.235 19.9085C119.351 21.9394 122.456 19.3131 123.3 17.2014C124.305 14.6869 123.457 11.1994 120.955 10.4086C118.209 9.54099 112.392 11.1509 112.392 11.1509M118.008 48.5809H136.026M135.839 48.3201C138.721 51.7356 141.799 55.1387 141.799 59.9938C141.799 62.1547 140.961 63.3767 140.437 65.3308C140.152 66.3937 139.372 69.352 138.609 70.1654M129.771 48.1297C128.608 47.9746 131.06 44.0718 131.211 43.5886C131.628 42.2556 133.865 40.2424 135.064 39.6945C138.217 38.2533 144.212 37.7009 146.2 41.5562C147.647 44.361 150.633 46.9759 151.277 50.2375C151.596 51.8514 152.617 53.4725 152.617 55.1874V60.1175C152.617 61.8387 152.349 63.5084 152.349 65.2382C152.349 66.5251 152.513 68.4882 151.88 69.5689C151.52 70.1833 151.75 71.3114 151.307 71.8513C150.896 72.352 150.291 72.9714 150.123 73.5979C149.922 74.3486 149.504 74.836 149.197 75.4914C148.934 76.0503 148.208 77.7592 147.696 78.1231C147.087 78.5565 146.485 79.5565 145.932 80.1238C145.257 80.8175 144.609 80.7812 143.807 81.0328C141.57 81.7343 139.678 80.877 137.371 80.7073C135.142 80.5433 132.863 78.9972 131.528 77.099C131.241 76.6911 128.805 71.7799 129.972 71.7799M133.054 47.9868C133.054 45.5698 135.669 41.9626 137.907 44.6365C140.999 48.3293 135.583 46.7988 136.605 49.6302M145.917 54.8462C142.864 55.208 145.442 64.927 149.234 61.6658C151.384 59.8166 150.96 57.9993 149.61 55.6798C149.338 55.2138 147.575 54.7033 147.056 54.7033M140.825 72.7089C139.536 72.7089 139.967 74.6348 140.025 75.69C140.094 76.9423 142.67 77.4083 143.546 76.9562C144.757 76.3313 147.864 74.0692 146.505 72.1373C145.79 71.1199 143.743 71.5657 142.835 71.5657M145.716 80.2112C147.414 80.2112 149.193 80.3553 150.51 78.5678C151.928 76.6436 154.196 74.3809 154.895 71.9586C155.861 68.6092 156.235 64.9139 156.235 61.4117C156.235 57.9838 154.746 54.8231 154.355 51.4919C153.783 46.61 150.466 40.1296 146.468 37.4836C142.892 35.1162 139.278 36.9871 136.069 38.6982M144.175 36.4832C145.957 36.3104 147.053 35.8504 148.772 36.7332C150.807 37.7779 152.856 39.4023 153.92 41.5959C156.209 46.3166 157.246 51.1824 158.178 56.3862C159.423 63.3378 159.833 75.3755 151.88 77.4959M155.103 45.3515C159.4 45.3515 164.978 47.9701 168.816 49.7894C177.938 54.1131 179.247 67.6548 180.146 76.9608L180.165 77.1632C181.393 89.8682 182 128.202 182 115.43M154.932 75.6704C154.932 84.7115 158.678 93.5361 158.678 102.6C158.678 105.849 157.838 113.543 159.359 115.975M41.4898 92.9209C42.4852 91.9183 43.7438 91.8752 44.7908 90.8828M40.7248 95.8776C45.3481 95.8776 50.5614 92.4881 55.0462 93.4446M41.3585 102.095C44.0862 101.804 46.9589 100.258 49.512 99.2266C52.2375 98.1253 55.149 97.6702 57.8345 96.4183C58.6883 96.0202 59.5382 95.337 60.496 95.337M53.0184 104.393C59.2528 99.1689 67.8758 97.6366 75.0709 94.6613M63.0308 104.663C65.5216 104.05 67.717 101.48 70.0507 100.413C75.28 98.023 80.6103 95.0866 85.7169 92.3635M80.204 101.63C85.0724 100.476 89.2555 90.8604 93.9474 89.8597M93.3227 97.4102C94.0102 97.9968 106.541 88.4511 107.897 87.4185L107.899 87.417M104.984 97.1881C109.683 96.2768 113.479 90.8949 118.102 89.4155M119.976 98.0764C122.902 93.8423 125.036 91.2219 129.139 88.3052M124.558 99.853C125.898 99.853 127.646 97.9128 128.491 97.0895C132.532 93.1513 136.31 88.9762 141.633 86.9728M130.596 101.63C134.502 97.4641 139.442 94.8606 143.298 90.7482M137.676 102.74C140.933 100.777 144.078 97.2219 146.838 94.5233M79.151 66.3053C80.4788 65.6726 82.8054 64.3384 83.6933 63.0759M80.6651 70.1403C82.9208 69.1274 85.1527 67.3827 87.2892 66.1035M85.5859 71.3513C88.052 70.8731 90.112 67.7857 92.21 66.5071M92.7778 72.5623C95.4981 69.6612 98.5323 67.3522 101.862 65.2961M101.295 71.5531C102.662 69.6089 104.999 68.7847 106.405 66.9108M107.729 70.9476L114.354 63.8832M113.029 70.1403C113.491 68.8588 114.896 66.9378 115.868 65.9016M116.199 69.1326C118.004 68.6514 125.692 56.2485 126.869 53.7371M119.965 70.2482C124.006 65.9388 127.675 59.687 130.426 54.4064M124.777 70.0251C125.49 67.7461 128.727 65.7741 129.88 63.5297C130.42 62.4769 132.429 56.1277 133.146 55.7452M80.2137 53.7369C80.2137 55.575 80.1489 56.4479 80.1217 56.7176M80.1217 56.7176C80.1083 56.8516 80.1041 56.8368 80.1217 56.7176ZM80.1217 56.7176C80.214 56.0949 80.9029 52.6213 83.9796 52.6213M88.4281 17.7739C88.4542 17.0219 88.7026 16.3451 88.7026 15.5778M91.5856 21.2877C91.5856 19.9021 91.4944 18.8456 91.7228 17.6276M96.1158 24.6549C96.1158 22.9731 95.9429 21.1848 96.2531 19.5307M100.783 25.8262C100.591 24.549 100.334 23.365 99.9597 22.166M105.176 26.851C104.53 26.6787 105.588 22.6835 105.588 22.3124M110.53 27.876C110.091 27.8174 109.981 24.8494 109.981 24.3622M114.923 28.3152C114.923 26.9608 114.786 25.6041 114.786 24.2158M119.866 27.5832C120.78 27.6238 118.767 25.2886 118.767 23.0446M125.22 26.119C125.22 24.7186 124.121 23.7751 124.121 22.166M99.3253 44.7325C98.898 44.933 98.6178 45.437 98.6178 45.9397M101.023 45.3361C101 45.8086 100.604 46.9901 100.316 47.2978M104.985 45.9397C104.85 46.5158 104.246 47.1803 103.853 47.5997M108.381 45.9397C107.841 46.8038 107.372 47.7707 106.683 48.5051M112.06 45.6378C111.193 47.5901 110.411 49.6079 109.513 51.5231M115.032 45.7889C115.032 47.3219 111.273 56.654 112.06 56.654M118.852 44.1288C117.941 48.5032 114.744 52.4547 113.9 56.9558M108.836 39.1964C108.836 39.6889 109.346 40.357 109.486 40.8393C109.649 41.399 109.512 42.2442 109.512 42.8228C109.512 43.3106 109.535 43.8034 109.512 44.2904C109.5 44.5513 109.202 45.5305 109.343 45.4174M111.034 39.5571C111.034 40.7726 112.163 44.8443 111.245 45.8232M113.148 40.0529C113.492 41.4907 113.528 42.91 113.528 44.3805C113.528 44.5548 113.246 45.7484 113.401 45.4174M115.684 39.7825C116.276 41.3611 115.768 43.491 115.768 45.102M117.966 38.7004C118.484 40.5641 118.347 42.2996 118.347 44.2002M113.884 30.5038C113.169 30.6563 110.955 33.0547 110.639 33.7285M115.286 30.8186C114.273 32.6888 113.114 35.2585 111.672 36.7961M118.604 30.5038C117.466 32.3834 116.319 34.1085 115.45 36.1667C115.27 36.5906 115.025 38.7683 115.212 38.3689M120.301 30.2678C119.196 32.4424 117.879 34.3784 116.941 36.6823C116.44 37.9139 117.19 37.3969 117.646 38.3689M154.756 78.1722C157.492 74.7514 161.874 72.637 165.548 70.6779M155.76 81.3842C159.764 78.8218 163.802 76.3182 167.806 73.7561M156.011 84.3283C158.241 83.2382 160.34 81.8857 162.536 80.7149M157.14 88.8784C158.154 87.5442 159.6 85.8907 161.281 85.6666M157.517 92.0903C158.816 91.8131 160.792 89.8687 162.034 89.1461M158.269 96.6404C159.565 95.8964 160.612 94.6551 161.909 93.9639M158.52 99.5845C159.018 99.0818 160.062 98.5321 160.277 97.8448M158.646 102.796C158.646 102.798 161.429 101.476 161.783 101.324M158.019 106.142C159.072 106.142 159.846 105.45 160.654 104.804" stroke="#353D41" stroke-width="2" stroke-linecap="round"/>
</svg>
