<svg width="32" height="24" viewBox="0 0 32 24" fill="none" xmlns="http://www.w3.org/2000/svg">
<path opacity="0.7" fill-rule="evenodd" clip-rule="evenodd" d="M0.401094 12.9396C0.144261 12.6903 0 12.3524 0 12C0 11.6476 0.144261 11.3097 0.401094 11.0604L11.3729 0.423195C11.4985 0.292559 11.6499 0.187778 11.8181 0.115107C11.9864 0.0424328 12.168 0.00335693 12.3521 0.000205994C12.5363 -0.00294304 12.7192 0.0298977 12.89 0.0967712C13.0607 0.163645 13.2159 0.263184 13.3461 0.389444C13.4763 0.515705 13.579 0.666105 13.648 0.831669C13.717 0.997234 13.7508 1.17457 13.7476 1.3531C13.7443 1.53164 13.704 1.70771 13.6291 1.87081C13.5541 2.03391 13.446 2.1807 13.3113 2.30243L4.68011 10.6704L30.6285 10.6704C30.9923 10.6704 31.3411 10.8104 31.5983 11.0598C31.8555 11.3092 32 11.6474 32 12C32 12.3526 31.8555 12.6908 31.5983 12.9402C31.3411 13.1896 30.9923 13.3296 30.6285 13.3296L4.68011 13.3296L13.3113 21.6976C13.446 21.8193 13.5541 21.9661 13.6291 22.1292C13.704 22.2923 13.7443 22.4684 13.7476 22.6469C13.7508 22.8254 13.717 23.0028 13.648 23.1683C13.579 23.3339 13.4763 23.4843 13.3461 23.6106C13.2159 23.7368 13.0607 23.8364 12.89 23.9032C12.7192 23.9701 12.5363 24.0029 12.3521 23.9998C12.168 23.9966 11.9864 23.9576 11.8181 23.8849C11.6499 23.8122 11.4985 23.7074 11.3729 23.5768L0.401094 12.9396Z" fill="white"/>
</svg>
