<svg width="32" height="24" viewBox="0 0 32 24" fill="none" xmlns="http://www.w3.org/2000/svg">
<path opacity="0.7" fill-rule="evenodd" clip-rule="evenodd" d="M31.5989 12.9396C31.8557 12.6903 32 12.3524 32 12C32 11.6476 31.8557 11.3097 31.5989 11.0604L20.6271 0.423195C20.5015 0.292559 20.3501 0.187778 20.1819 0.115107C20.0136 0.0424328 19.832 0.00335693 19.6479 0.000205994C19.4637 -0.00294304 19.2808 0.0298977 19.11 0.0967712C18.9393 0.163645 18.7841 0.263184 18.6539 0.389444C18.5237 0.515705 18.421 0.666105 18.352 0.831669C18.283 0.997234 18.2492 1.17457 18.2524 1.3531C18.2557 1.53164 18.296 1.70771 18.3709 1.87081C18.4459 2.03391 18.554 2.1807 18.6887 2.30243L27.3199 10.6704L1.37148 10.6704C1.00774 10.6704 0.658899 10.8104 0.401697 11.0598C0.144495 11.3092 0 11.6474 0 12C0 12.3526 0.144495 12.6908 0.401697 12.9402C0.658899 13.1896 1.00774 13.3296 1.37148 13.3296L27.3199 13.3296L18.6887 21.6976C18.554 21.8193 18.4459 21.9661 18.3709 22.1292C18.296 22.2923 18.2557 22.4684 18.2524 22.6469C18.2492 22.8254 18.283 23.0028 18.352 23.1683C18.421 23.3339 18.5237 23.4843 18.6539 23.6106C18.7841 23.7368 18.9393 23.8364 19.11 23.9032C19.2808 23.9701 19.4637 24.0029 19.6479 23.9998C19.832 23.9966 20.0136 23.9576 20.1819 23.8849C20.3501 23.8122 20.5015 23.7074 20.6271 23.5768L31.5989 12.9396Z" fill="white"/>
</svg>
