<svg width="87" height="77" viewBox="0 0 87 77" fill="none" xmlns="http://www.w3.org/2000/svg">
<g filter="url(#filter0_i_161_53)">
<path d="M33.9444 77H24.3889L14.8333 68.6667V56.1667H33.9444V77ZM72.1667 56.1667H53.0556V77H62.6111L72.1667 68.6667V56.1667ZM0.5 2V6.16667C0.5 7.27174 1.00337 8.33154 1.89938 9.11294C2.79539 9.89435 4.01063 10.3333 5.27778 10.3333V47.8333C5.27778 48.9384 5.78115 49.9982 6.67716 50.7796C7.57316 51.561 8.78841 52 10.0556 52H76.9444C78.2116 52 79.4268 51.561 80.3228 50.7796C81.2188 49.9982 81.7222 48.9384 81.7222 47.8333V10.3333C82.9894 10.3333 84.2046 9.89435 85.1006 9.11294C85.9966 8.33154 86.5 7.27174 86.5 6.16667V2H0.5ZM42.6878 43.6667V30.0417H33.9444L46.4144 8.91667V22.5417H54.7756L42.6878 43.6667Z" fill="#FDD03B"/>
</g>
<defs>
<filter id="filter0_i_161_53" x="0.5" y="0" width="86" height="81" filterUnits="userSpaceOnUse" color-interpolation-filters="sRGB">
<feFlood flood-opacity="0" result="BackgroundImageFix"/>
<feBlend mode="normal" in="SourceGraphic" in2="BackgroundImageFix" result="shape"/>
<feColorMatrix in="SourceAlpha" type="matrix" values="0 0 0 0 0 0 0 0 0 0 0 0 0 0 0 0 0 0 127 0" result="hardAlpha"/>
<feOffset dy="4"/>
<feGaussianBlur stdDeviation="2"/>
<feComposite in2="hardAlpha" operator="arithmetic" k2="-1" k3="1"/>
<feColorMatrix type="matrix" values="0 0 0 0 0 0 0 0 0 0 0 0 0 0 0 0 0 0 0.25 0"/>
<feBlend mode="normal" in2="shape" result="effect1_innerShadow_161_53"/>
</filter>
</defs>
</svg>
