<svg width="38" height="37" viewBox="0 0 38 37" fill="none" xmlns="http://www.w3.org/2000/svg">
<g clip-path="url(#clip0_161_28)">
<path d="M35.4516 0H2.54844C1.42143 0 0.507812 0.913619 0.507812 2.04062V34.9437C0.507812 36.0708 1.42143 36.9844 2.54844 36.9844H35.4516C36.5786 36.9844 37.4922 36.0708 37.4922 34.9437V2.04062C37.4922 0.913619 36.5786 0 35.4516 0Z" fill="#3D5A98"/>
<path d="M25.4954 37.5887V24.3466H29.9393L30.6039 19.1861H25.4954V15.8922C25.4954 14.3983 25.9115 13.3784 28.0526 13.3784H30.7859V8.75534C29.4623 8.6174 28.1322 8.55181 26.8014 8.55886C22.8661 8.55886 20.1558 10.9571 20.1558 15.3807V19.1861H15.7119V24.3466H20.1558V37.5887H25.4954Z" fill="white"/>
</g>
<defs>
<clipPath id="clip0_161_28">
<rect width="36.9844" height="36.9844" fill="white" transform="translate(0.507812)"/>
</clipPath>
</defs>
</svg>
