<svg width="512" height="512" viewBox="0 0 512 512" fill="none" xmlns="http://www.w3.org/2000/svg">
<rect width="512" height="512" rx="44" fill="#D9D9D9"/>
<path d="M188.632 377.761L255.057 155.982L188.632 150.764L297.328 9L255.057 117.715L318.895 106.408L188.632 377.761Z" fill="#FEB900" fill-opacity="0.28"/>
<path d="M257.237 503L61.8421 71.6197H199.921V118.585H159.105L267.658 341.232L320.197 229.908L372.737 118.585H331.921V71.6197H470L257.237 503Z" fill="#00202E" fill-opacity="0.5"/>
<path d="M246.816 476.039L41 71.6197H179.079V118.585H138.263L246.816 341.232L351.895 118.585H311.079V71.6197H449.158L246.816 476.039Z" fill="#00202E"/>
<path d="M178.211 377.761L244.636 155.982L178.211 150.764L286.907 9L244.636 117.715L308.474 106.408L178.211 377.761Z" fill="#FEB900"/>
</svg>
