<svg width="86" height="75" viewBox="0 0 86 75" fill="none" xmlns="http://www.w3.org/2000/svg">
<g filter="url(#filter0_i_161_39)">
<path d="M84.2201 36.8855L45.1457 0.821361C44.8644 0.560991 44.5302 0.354425 44.1623 0.213486C43.7944 0.0725459 43.4001 0 43.0018 0C42.6035 0 42.2091 0.0725459 41.8413 0.213486C41.4734 0.354425 41.1392 0.560991 40.8579 0.821361L1.78344 36.8855C0.645074 37.937 0 39.3652 0 40.8547C0 43.9477 2.72259 46.4623 6.07129 46.4623H10.1884V72.1962C10.1884 73.747 11.5449 75 13.224 75H36.9305V55.3732H47.5552V75H72.7795C74.4586 75 75.8152 73.747 75.8152 72.1962V46.4623H79.9323C81.545 46.4623 83.0912 45.8753 84.2296 44.8151C86.5917 42.6246 86.5917 39.076 84.2201 36.8855Z" fill="#FDD03B"/>
</g>
<defs>
<filter id="filter0_i_161_39" x="0" y="0" width="86" height="79" filterUnits="userSpaceOnUse" color-interpolation-filters="sRGB">
<feFlood flood-opacity="0" result="BackgroundImageFix"/>
<feBlend mode="normal" in="SourceGraphic" in2="BackgroundImageFix" result="shape"/>
<feColorMatrix in="SourceAlpha" type="matrix" values="0 0 0 0 0 0 0 0 0 0 0 0 0 0 0 0 0 0 127 0" result="hardAlpha"/>
<feOffset dy="4"/>
<feGaussianBlur stdDeviation="2"/>
<feComposite in2="hardAlpha" operator="arithmetic" k2="-1" k3="1"/>
<feColorMatrix type="matrix" values="0 0 0 0 0 0 0 0 0 0 0 0 0 0 0 0 0 0 0.25 0"/>
<feBlend mode="normal" in2="shape" result="effect1_innerShadow_161_39"/>
</filter>
</defs>
</svg>
