<svg width="87" height="77" viewBox="0 0 87 77" fill="none" xmlns="http://www.w3.org/2000/svg">
<g filter="url(#filter0_i_161_7)">
<path d="M40.4286 2C39.6607 2 38.8929 2.63025 37.3571 3.89076V8.93277H28.0417C25.0714 6.41177 25.0714 6.41177 22 8.93277C18.9286 11.4538 18.9286 11.4538 22 13.9748C25.0714 16.4958 25.0714 16.4958 27.9067 13.9748H37.3571V19.0168H43.5V13.9748H52.8492C55.8828 16.4958 55.8823 16.4958 58.9537 13.9748C62.0251 11.4538 62.0251 11.4538 58.9537 8.93277C55.8823 6.41177 55.8828 6.41177 52.7143 8.93277H43.5V3.89076C41.9643 2.63025 41.1964 2 40.4286 2ZM0.5 14.2899V54.6261H6.64286V14.2899H0.5ZM12.7857 21.8529L9.71429 19.3319V49.584L12.7857 47.063V21.8529ZM40.4286 21.5378C34.2857 21.5378 31.1471 21.5378 30.9782 26.5798H15.8571V41.7059H28.2628C31.2143 44.2269 34.2857 46.7479 40.4286 46.7479C46.5714 46.7479 49.6429 44.2269 52.7143 41.7059C65 41.7059 65 41.7059 65 46.7479V51.7899H83.4286V41.7059C83.4286 31.6218 77.2857 26.5798 65 26.5798H49.6429C49.71 21.5378 46.5714 21.5378 40.4286 21.5378ZM61.9286 54.3109V56.8319H86.5V54.3109H61.9286ZM74.2143 59.3529C74.2143 59.3529 66.7617 67.4927 68.0714 72.2731C68.8815 75.229 70.5228 77 74.2143 77C77.9058 77 79.5471 75.229 80.3571 72.2731C81.6669 67.4927 74.2143 59.3529 74.2143 59.3529Z" fill="#FDD03B"/>
</g>
<defs>
<filter id="filter0_i_161_7" x="0.5" y="2" width="86" height="79" filterUnits="userSpaceOnUse" color-interpolation-filters="sRGB">
<feFlood flood-opacity="0" result="BackgroundImageFix"/>
<feBlend mode="normal" in="SourceGraphic" in2="BackgroundImageFix" result="shape"/>
<feColorMatrix in="SourceAlpha" type="matrix" values="0 0 0 0 0 0 0 0 0 0 0 0 0 0 0 0 0 0 127 0" result="hardAlpha"/>
<feOffset dy="4"/>
<feGaussianBlur stdDeviation="2"/>
<feComposite in2="hardAlpha" operator="arithmetic" k2="-1" k3="1"/>
<feColorMatrix type="matrix" values="0 0 0 0 0 0 0 0 0 0 0 0 0 0 0 0 0 0 0.25 0"/>
<feBlend mode="normal" in2="shape" result="effect1_innerShadow_161_7"/>
</filter>
</defs>
</svg>
