<svg width="18" height="27" viewBox="0 0 18 27" fill="none" xmlns="http://www.w3.org/2000/svg">
<path d="M8.59998 2.81946C13.2925 2.81946 17.1 6.27535 17.1 10.5337C17.1 17.3909 8.59998 26.8195 8.59998 26.8195C8.59998 26.8195 0.0999756 17.3909 0.0999756 10.5337C0.0999756 6.27535 3.90744 2.81946 8.59998 2.81946ZM8.59998 14.8195C9.27243 14.8195 9.92979 14.6184 10.4889 14.2416C11.048 13.8649 11.4838 13.3294 11.7412 12.7029C11.9985 12.0765 12.0658 11.3871 11.9346 10.722C11.8035 10.0569 11.4796 9.44601 11.0041 8.96652C10.5286 8.48703 9.92282 8.16049 9.26328 8.02819C8.60375 7.8959 7.92012 7.9638 7.29885 8.2233C6.67758 8.4828 6.14658 8.92225 5.77298 9.48607C5.39938 10.0499 5.19998 10.7128 5.19998 11.3909C5.20096 12.2999 5.55949 13.1714 6.1969 13.8142C6.83431 14.4569 7.69854 14.8185 8.59998 14.8195Z" fill="white"/>
</svg>
