<svg width="3176" height="494" viewBox="0 0 3176 494" fill="none" xmlns="http://www.w3.org/2000/svg">
<path d="M553.26 251.94L557.46 255.72C556.247 257.12 554.473 258.753 552.14 260.62C549.807 262.487 546.867 264.26 543.32 265.94C539.867 267.527 535.76 268.88 531 270C526.333 271.12 521.013 271.68 515.04 271.68C505.613 271.68 497.493 270.233 490.68 267.34C483.867 264.353 478.267 260.48 473.88 255.72C469.493 250.867 466.227 245.36 464.08 239.2C462.027 232.947 461 226.553 461 220.02C461 212.46 462.307 205.647 464.92 199.58C467.533 193.42 471.22 188.193 475.98 183.9C480.74 179.513 486.433 176.153 493.06 173.82C499.78 171.487 507.2 170.32 515.32 170.32C520.92 170.32 525.913 170.88 530.3 172C534.687 173.12 538.513 174.66 541.78 176.62C545.047 178.58 547.753 180.913 549.9 183.62C552.14 186.327 553.96 189.267 555.36 192.44H545C544.347 190.48 543.18 188.567 541.5 186.7C539.913 184.74 537.813 183.013 535.2 181.52C532.68 180.027 529.74 178.813 526.38 177.88C523.113 176.947 519.473 176.48 515.46 176.48C509.58 176.48 504.12 177.553 499.08 179.7C494.133 181.847 489.84 184.833 486.2 188.66C482.56 192.487 479.713 197.06 477.66 202.38C475.7 207.607 474.72 213.393 474.72 219.74C474.72 225.713 475.653 231.453 477.52 236.96C479.48 242.467 482.327 247.32 486.06 251.52C489.793 255.72 494.46 259.08 500.06 261.6C505.66 264.12 512.1 265.38 519.38 265.38C532.447 265.38 543.74 260.9 553.26 251.94ZM595.23 221C595.23 215.68 596.21 210.033 598.17 204.06C600.224 198.087 603.397 192.627 607.69 187.68C611.984 182.64 617.444 178.487 624.07 175.22C630.697 171.953 638.63 170.32 647.87 170.32C657.204 170.32 665.277 172 672.09 175.36C678.997 178.627 684.69 182.78 689.17 187.82C693.65 192.86 696.964 198.367 699.11 204.34C701.257 210.22 702.33 215.773 702.33 221C702.33 224.453 701.817 228.093 700.79 231.92C699.857 235.747 698.41 239.573 696.45 243.4C694.584 247.133 692.157 250.727 689.17 254.18C686.184 257.54 682.637 260.527 678.53 263.14C674.517 265.753 669.944 267.853 664.81 269.44C659.77 270.933 654.124 271.68 647.87 271.68C638.63 271.68 630.697 270.047 624.07 266.78C617.444 263.42 611.984 259.22 607.69 254.18C603.397 249.14 600.224 243.68 598.17 237.8C596.21 231.827 595.23 226.227 595.23 221ZM608.95 221C608.95 227.533 609.93 233.553 611.89 239.06C613.944 244.473 616.697 249.14 620.15 253.06C623.697 256.98 627.85 260.06 632.61 262.3C637.37 264.447 642.55 265.52 648.15 265.52C653.657 265.52 658.837 264.447 663.69 262.3C668.637 260.06 672.93 256.98 676.57 253.06C680.304 249.14 683.244 244.473 685.39 239.06C687.537 233.553 688.61 227.533 688.61 221C688.61 214.467 687.537 208.493 685.39 203.08C683.244 197.573 680.304 192.86 676.57 188.94C672.93 185.02 668.637 181.987 663.69 179.84C658.837 177.6 653.657 176.48 648.15 176.48C642.55 176.48 637.37 177.6 632.61 179.84C627.85 181.987 623.697 185.02 620.15 188.94C616.697 192.86 613.944 197.573 611.89 203.08C609.93 208.493 608.95 214.467 608.95 221ZM833.123 172H839.563V271.68H838.863L761.163 195.1H760.603V270H754.163V170.32H754.863L832.563 246.9H833.123V172ZM889.489 245.22H899.009C899.102 246.807 899.475 248.767 900.129 251.1C900.782 253.34 902.042 255.533 903.909 257.68C905.775 259.827 908.482 261.693 912.029 263.28C915.575 264.773 920.289 265.52 926.169 265.52C933.542 265.52 939.422 264.12 943.809 261.32C948.289 258.52 950.529 254.087 950.529 248.02C950.529 243.167 949.129 239.293 946.329 236.4C943.529 233.507 939.982 231.08 935.689 229.12C931.489 227.067 926.915 225.247 921.969 223.66C917.022 222.073 912.402 220.16 908.109 217.92C903.909 215.68 900.409 212.88 897.609 209.52C894.809 206.16 893.409 201.727 893.409 196.22C893.409 192.02 894.249 188.287 895.929 185.02C897.702 181.753 900.035 179.047 902.929 176.9C905.915 174.753 909.322 173.12 913.149 172C917.069 170.88 921.175 170.32 925.469 170.32C929.575 170.32 933.495 170.833 937.229 171.86C941.055 172.793 944.462 174.24 947.449 176.2C950.435 178.067 952.909 180.4 954.869 183.2C956.829 185.907 958.089 188.987 958.649 192.44H949.129C948.382 186.933 945.862 182.92 941.569 180.4C937.369 177.787 932.235 176.48 926.169 176.48C922.529 176.48 919.309 176.947 916.509 177.88C913.709 178.72 911.329 179.887 909.369 181.38C907.502 182.78 906.055 184.46 905.029 186.42C904.095 188.38 903.629 190.48 903.629 192.72C903.629 196.733 905.075 199.953 907.969 202.38C910.862 204.807 914.455 206.953 918.749 208.82C923.135 210.687 927.849 212.46 932.889 214.14C938.022 215.82 942.735 217.92 947.029 220.44C951.415 222.867 955.055 225.947 957.949 229.68C960.842 233.32 962.289 238.033 962.289 243.82C962.289 248.02 961.449 251.847 959.769 255.3C958.089 258.753 955.709 261.693 952.629 264.12C949.549 266.547 945.815 268.413 941.429 269.72C937.135 271.027 932.282 271.68 926.869 271.68C921.549 271.68 916.649 271.073 912.169 269.86C907.689 268.553 903.769 266.78 900.409 264.54C897.142 262.207 894.529 259.407 892.569 256.14C890.702 252.873 889.675 249.233 889.489 245.22ZM1052.87 270H1040.13V179.7H1002.61V172H1090.39V179.7H1052.87V270ZM1137.99 172H1169.77C1176.02 172 1181.2 172.887 1185.31 174.66C1189.41 176.34 1192.63 178.487 1194.97 181.1C1197.39 183.62 1199.07 186.373 1200.01 189.36C1201.03 192.347 1201.55 195.1 1201.55 197.62C1201.55 200.42 1201.08 203.313 1200.15 206.3C1199.21 209.193 1197.72 211.9 1195.67 214.42C1193.61 216.94 1190.95 219.04 1187.69 220.72C1184.51 222.4 1180.69 223.38 1176.21 223.66V224.22L1177.61 224.92C1178.73 225.48 1179.66 226.18 1180.41 227.02C1181.25 227.86 1182.27 229.213 1183.49 231.08C1184.79 232.947 1186.52 235.607 1188.67 239.06C1190.81 242.42 1193.85 246.947 1197.77 252.64C1199.07 254.6 1200.33 256.373 1201.55 257.96C1202.76 259.453 1204.02 260.76 1205.33 261.88C1206.63 262.907 1208.03 263.7 1209.53 264.26C1211.02 264.82 1212.75 265.1 1214.71 265.1C1215.17 265.1 1215.64 265.1 1216.11 265.1C1216.57 265.007 1217.04 264.913 1217.51 264.82V270C1216.2 270.747 1214.89 271.213 1213.59 271.4C1212.28 271.587 1210.6 271.68 1208.55 271.68C1205.75 271.68 1203.32 271.307 1201.27 270.56C1199.31 269.813 1197.53 268.833 1195.95 267.62C1194.36 266.313 1192.87 264.773 1191.47 263C1190.16 261.227 1188.81 259.267 1187.41 257.12L1176.35 240.74C1174.67 238.127 1173.22 235.933 1172.01 234.16C1170.79 232.387 1169.49 230.94 1168.09 229.82C1166.69 228.7 1165.1 227.907 1163.33 227.44C1161.65 226.973 1159.5 226.74 1156.89 226.74H1150.73V270H1137.99V172ZM1150.73 178.16V220.44H1165.15C1168.88 220.44 1172.15 219.787 1174.95 218.48C1177.84 217.173 1180.27 215.493 1182.23 213.44C1184.19 211.293 1185.63 208.96 1186.57 206.44C1187.59 203.827 1188.11 201.26 1188.11 198.74C1188.11 195.753 1187.55 193 1186.43 190.48C1185.4 187.96 1183.86 185.813 1181.81 184.04C1179.75 182.173 1177.28 180.727 1174.39 179.7C1171.59 178.673 1168.41 178.16 1164.87 178.16H1150.73ZM1260.88 172H1273.62V235.98C1273.62 237.847 1273.66 239.713 1273.76 241.58C1273.85 243.447 1274.18 245.313 1274.74 247.18C1275.3 248.953 1276.14 250.773 1277.26 252.64C1278.38 254.507 1280.01 256.373 1282.16 258.24C1284.86 260.667 1287.71 262.487 1290.7 263.7C1293.78 264.913 1297.28 265.52 1301.2 265.52C1305.77 265.52 1310.16 264.867 1314.36 263.56C1318.56 262.253 1322.34 259.78 1325.7 256.14C1327.56 254.087 1328.96 252.033 1329.9 249.98C1330.92 247.927 1331.67 245.873 1332.14 243.82C1332.6 241.673 1332.88 239.573 1332.98 237.52C1333.07 235.373 1333.12 233.273 1333.12 231.22V172H1339.28V235.84C1339.28 240.787 1338.48 245.453 1336.9 249.84C1335.31 254.133 1332.93 257.913 1329.76 261.18C1326.68 264.447 1322.8 267.013 1318.14 268.88C1313.56 270.747 1308.29 271.68 1302.32 271.68C1292.8 271.68 1285.28 270.373 1279.78 267.76C1274.27 265.053 1270.12 261.74 1267.32 257.82C1264.52 253.807 1262.74 249.513 1262 244.94C1261.25 240.273 1260.88 236.027 1260.88 232.2V172ZM1395.24 172H1458.52V179.7H1407.98V214.84H1451.38V221.28H1407.98V262.3H1458.52V270H1395.24V172ZM1507.46 270V172H1520.2V262.3H1570.74V270H1507.46ZM1619.68 172H1682.96V179.7H1632.42V214.84H1675.82V221.28H1632.42V262.3H1682.96V270H1619.68V172ZM1814.35 251.94L1818.55 255.72C1817.34 257.12 1815.57 258.753 1813.23 260.62C1810.9 262.487 1807.96 264.26 1804.41 265.94C1800.96 267.527 1796.85 268.88 1792.09 270C1787.43 271.12 1782.11 271.68 1776.13 271.68C1766.71 271.68 1758.59 270.233 1751.77 267.34C1744.96 264.353 1739.36 260.48 1734.97 255.72C1730.59 250.867 1727.32 245.36 1725.17 239.2C1723.12 232.947 1722.09 226.553 1722.09 220.02C1722.09 212.46 1723.4 205.647 1726.01 199.58C1728.63 193.42 1732.31 188.193 1737.07 183.9C1741.83 179.513 1747.53 176.153 1754.15 173.82C1760.87 171.487 1768.29 170.32 1776.41 170.32C1782.01 170.32 1787.01 170.88 1791.39 172C1795.78 173.12 1799.61 174.66 1802.87 176.62C1806.14 178.58 1808.85 180.913 1810.99 183.62C1813.23 186.327 1815.05 189.267 1816.45 192.44H1806.09C1805.44 190.48 1804.27 188.567 1802.59 186.7C1801.01 184.74 1798.91 183.013 1796.29 181.52C1793.77 180.027 1790.83 178.813 1787.47 177.88C1784.21 176.947 1780.57 176.48 1776.55 176.48C1770.67 176.48 1765.21 177.553 1760.17 179.7C1755.23 181.847 1750.93 184.833 1747.29 188.66C1743.65 192.487 1740.81 197.06 1738.75 202.38C1736.79 207.607 1735.81 213.393 1735.81 219.74C1735.81 225.713 1736.75 231.453 1738.61 236.96C1740.57 242.467 1743.42 247.32 1747.15 251.52C1750.89 255.72 1755.55 259.08 1761.15 261.6C1766.75 264.12 1773.19 265.38 1780.47 265.38C1793.54 265.38 1804.83 260.9 1814.35 251.94ZM1902.38 270H1889.64V179.7H1852.12V172H1939.9V179.7H1902.38V270ZM1987.5 172H2019.28C2025.54 172 2030.72 172.887 2034.82 174.66C2038.93 176.34 2042.15 178.487 2044.48 181.1C2046.91 183.62 2048.59 186.373 2049.52 189.36C2050.55 192.347 2051.06 195.1 2051.06 197.62C2051.06 200.42 2050.6 203.313 2049.66 206.3C2048.73 209.193 2047.24 211.9 2045.18 214.42C2043.13 216.94 2040.47 219.04 2037.2 220.72C2034.03 222.4 2030.2 223.38 2025.72 223.66V224.22L2027.12 224.92C2028.24 225.48 2029.18 226.18 2029.92 227.02C2030.76 227.86 2031.79 229.213 2033 231.08C2034.31 232.947 2036.04 235.607 2038.18 239.06C2040.33 242.42 2043.36 246.947 2047.28 252.64C2048.59 254.6 2049.85 256.373 2051.06 257.96C2052.28 259.453 2053.54 260.76 2054.84 261.88C2056.15 262.907 2057.55 263.7 2059.04 264.26C2060.54 264.82 2062.26 265.1 2064.22 265.1C2064.69 265.1 2065.16 265.1 2065.62 265.1C2066.09 265.007 2066.56 264.913 2067.02 264.82V270C2065.72 270.747 2064.41 271.213 2063.1 271.4C2061.8 271.587 2060.12 271.68 2058.06 271.68C2055.26 271.68 2052.84 271.307 2050.78 270.56C2048.82 269.813 2047.05 268.833 2045.46 267.62C2043.88 266.313 2042.38 264.773 2040.98 263C2039.68 261.227 2038.32 259.267 2036.92 257.12L2025.86 240.74C2024.18 238.127 2022.74 235.933 2021.52 234.16C2020.31 232.387 2019 230.94 2017.6 229.82C2016.2 228.7 2014.62 227.907 2012.84 227.44C2011.16 226.973 2009.02 226.74 2006.4 226.74H2000.24V270H1987.5V172ZM2000.24 178.16V220.44H2014.66C2018.4 220.44 2021.66 219.787 2024.46 218.48C2027.36 217.173 2029.78 215.493 2031.74 213.44C2033.7 211.293 2035.15 208.96 2036.08 206.44C2037.11 203.827 2037.62 201.26 2037.62 198.74C2037.62 195.753 2037.06 193 2035.94 190.48C2034.92 187.96 2033.38 185.813 2031.32 184.04C2029.27 182.173 2026.8 180.727 2023.9 179.7C2021.1 178.673 2017.93 178.16 2014.38 178.16H2000.24ZM2121.59 172H2134.33V270H2121.59V172ZM2284.01 251.94L2288.21 255.72C2287 257.12 2285.22 258.753 2282.89 260.62C2280.56 262.487 2277.62 264.26 2274.07 265.94C2270.62 267.527 2266.51 268.88 2261.75 270C2257.08 271.12 2251.76 271.68 2245.79 271.68C2236.36 271.68 2228.24 270.233 2221.43 267.34C2214.62 264.353 2209.02 260.48 2204.63 255.72C2200.24 250.867 2196.98 245.36 2194.83 239.2C2192.78 232.947 2191.75 226.553 2191.75 220.02C2191.75 212.46 2193.06 205.647 2195.67 199.58C2198.28 193.42 2201.97 188.193 2206.73 183.9C2211.49 179.513 2217.18 176.153 2223.81 173.82C2230.53 171.487 2237.95 170.32 2246.07 170.32C2251.67 170.32 2256.66 170.88 2261.05 172C2265.44 173.12 2269.26 174.66 2272.53 176.62C2275.8 178.58 2278.5 180.913 2280.65 183.62C2282.89 186.327 2284.71 189.267 2286.11 192.44H2275.75C2275.1 190.48 2273.93 188.567 2272.25 186.7C2270.66 184.74 2268.56 183.013 2265.95 181.52C2263.43 180.027 2260.49 178.813 2257.13 177.88C2253.86 176.947 2250.22 176.48 2246.21 176.48C2240.33 176.48 2234.87 177.553 2229.83 179.7C2224.88 181.847 2220.59 184.833 2216.95 188.66C2213.31 192.487 2210.46 197.06 2208.41 202.38C2206.45 207.607 2205.47 213.393 2205.47 219.74C2205.47 225.713 2206.4 231.453 2208.27 236.96C2210.23 242.467 2213.08 247.32 2216.81 251.52C2220.54 255.72 2225.21 259.08 2230.81 261.6C2236.41 264.12 2242.85 265.38 2250.13 265.38C2263.2 265.38 2274.49 260.9 2284.01 251.94ZM2439.47 172H2452.21V242.28C2452.21 245.267 2451.97 248.487 2451.51 251.94C2451.04 255.393 2449.87 258.613 2448.01 261.6C2446.23 264.493 2443.48 266.92 2439.75 268.88C2436.01 270.747 2430.93 271.68 2424.49 271.68C2415.53 271.68 2408.81 269.72 2404.33 265.8C2399.85 261.88 2397.51 256.327 2397.33 249.14H2409.51C2409.51 250.633 2409.74 252.36 2410.21 254.32C2410.77 256.187 2411.61 257.96 2412.73 259.64C2413.94 261.32 2415.53 262.72 2417.49 263.84C2419.54 264.96 2422.11 265.52 2425.19 265.52C2428.73 265.52 2431.44 264.773 2433.31 263.28C2435.27 261.693 2436.71 259.78 2437.65 257.54C2438.58 255.207 2439.09 252.733 2439.19 250.12C2439.37 247.413 2439.47 244.94 2439.47 242.7V172ZM2501.27 172H2516.39L2549.99 252.64H2550.55L2583.17 172H2590.45L2550.69 270H2542.29L2501.27 172ZM2716.43 270V172H2729.17V262.3H2779.71V270H2716.43ZM2842.49 270H2829.75V179.7H2792.23V172H2880.01V179.7H2842.49V270ZM2929.01 270V172H2961.21C2968.96 172 2976.05 173.26 2982.49 175.78C2988.93 178.207 2994.44 181.613 2999.01 186C3003.68 190.293 3007.27 195.427 3009.79 201.4C3012.4 207.373 3013.71 213.813 3013.71 220.72C3013.71 227.907 3012.36 234.533 3009.65 240.6C3007.04 246.573 3003.4 251.753 2998.73 256.14C2994.16 260.527 2988.79 263.933 2982.63 266.36C2976.47 268.787 2969.89 270 2962.89 270H2929.01ZM2941.75 263.84H2957.15C2964.8 263.84 2971.29 262.58 2976.61 260.06C2982.02 257.447 2986.46 254.087 2989.91 249.98C2993.36 245.873 2995.88 241.3 2997.47 236.26C2999.06 231.127 2999.85 226.04 2999.85 221C2999.85 215.4 2998.92 210.033 2997.05 204.9C2995.18 199.673 2992.43 195.1 2988.79 191.18C2985.24 187.167 2980.81 183.993 2975.49 181.66C2970.17 179.327 2964.06 178.16 2957.15 178.16H2941.75V263.84ZM3117.12 241.16H3068.82L3056.5 270H3050.06L3091.5 172H3098.5L3144.14 270H3130.56L3117.12 241.16ZM3114.18 234.86L3092.2 187.68H3091.64L3071.48 234.86H3114.18Z" fill="#00202E"/>
<g filter="url(#filter0_d_348_277)">
<path d="M454 351C878.468 352.425 1245.5 353 1801 353C2356.5 353 2723.53 352.425 3148 351" stroke="#00202E" stroke-width="5"/>
</g>
<path d="M147.976 368.761L214.556 146.982L147.976 141.764L256.926 0L214.556 108.715L278.543 97.4084L147.976 368.761Z" fill="#FEB900" fill-opacity="0.28"/>
<path d="M216.741 494L20.8907 62.6197H159.292V109.585H118.381L227.186 332.232L279.848 220.908L332.51 109.585H291.599V62.6197H430L216.741 494Z" fill="#00202E" fill-opacity="0.5"/>
<path d="M206.296 467.039L0 62.6197H138.401V109.585H97.4899L206.296 332.232L311.619 109.585H270.708V62.6197H409.109L206.296 467.039Z" fill="#00202E"/>
<path d="M137.53 368.761L204.111 146.982L137.53 141.764L246.48 0L204.111 108.715L268.097 97.4084L137.53 368.761Z" fill="#FEB900"/>
<g filter="url(#filter1_i_348_277)">
<path d="M210 450.8C210 450.952 209.907 451.084 209.764 451.152L206.253 452.928C206.182 452.976 206.093 453 206 453C205.907 453 205.818 452.976 205.747 452.928L202.236 451.152C202.164 451.118 202.105 451.068 202.063 451.006C202.022 450.944 202 450.872 202 450.8V447.2C202 447.048 202.093 446.916 202.236 446.848L205.747 445.072C205.818 445.024 205.907 445 206 445C206.093 445 206.182 445.024 206.253 445.072L209.764 446.848C209.907 446.916 210 447.048 210 447.2V450.8ZM206 447C205.411 447 204.845 447.211 204.429 447.586C204.012 447.961 203.778 448.47 203.778 449C203.778 449.53 204.012 450.039 204.429 450.414C204.845 450.789 205.411 451 206 451C206.589 451 207.155 450.789 207.571 450.414C207.988 450.039 208.222 449.53 208.222 449C208.222 448.47 207.988 447.961 207.571 447.586C207.155 447.211 206.589 447 206 447Z" fill="#6D7D84"/>
</g>
<g filter="url(#filter2_i_348_277)">
<path d="M288 71.8C288 71.952 287.907 72.084 287.764 72.152L284.253 73.928C284.182 73.976 284.093 74 284 74C283.907 74 283.818 73.976 283.747 73.928L280.236 72.152C280.164 72.1183 280.105 72.0677 280.063 72.0056C280.022 71.9436 280 71.8724 280 71.8V68.2C280 68.048 280.093 67.916 280.236 67.848L283.747 66.072C283.818 66.024 283.907 66 284 66C284.093 66 284.182 66.024 284.253 66.072L287.764 67.848C287.907 67.916 288 68.048 288 68.2V71.8ZM284 68C283.411 68 282.845 68.2107 282.429 68.5858C282.012 68.9609 281.778 69.4696 281.778 70C281.778 70.5304 282.012 71.0391 282.429 71.4142C282.845 71.7893 283.411 72 284 72C284.589 72 285.155 71.7893 285.571 71.4142C285.988 71.0391 286.222 70.5304 286.222 70C286.222 69.4696 285.988 68.9609 285.571 68.5858C285.155 68.2107 284.589 68 284 68Z" fill="#6D7D84"/>
</g>
<g filter="url(#filter3_i_348_277)">
<path d="M133 71.8C133 71.952 132.907 72.084 132.764 72.152L129.253 73.928C129.182 73.976 129.093 74 129 74C128.907 74 128.818 73.976 128.747 73.928L125.236 72.152C125.164 72.1183 125.105 72.0677 125.063 72.0056C125.022 71.9436 125 71.8724 125 71.8V68.2C125 68.048 125.093 67.916 125.236 67.848L128.747 66.072C128.818 66.024 128.907 66 129 66C129.093 66 129.182 66.024 129.253 66.072L132.764 67.848C132.907 67.916 133 68.048 133 68.2V71.8ZM129 68C128.411 68 127.845 68.2107 127.429 68.5858C127.012 68.9609 126.778 69.4696 126.778 70C126.778 70.5304 127.012 71.0391 127.429 71.4142C127.845 71.7893 128.411 72 129 72C129.589 72 130.155 71.7893 130.571 71.4142C130.988 71.0391 131.222 70.5304 131.222 70C131.222 69.4696 130.988 68.9609 130.571 68.5858C130.155 68.2107 129.589 68 129 68Z" fill="#6D7D84"/>
</g>
<g filter="url(#filter4_i_348_277)">
<path d="M288 103.8C288 103.952 287.907 104.084 287.764 104.152L284.253 105.928C284.182 105.976 284.093 106 284 106C283.907 106 283.818 105.976 283.747 105.928L280.236 104.152C280.164 104.118 280.105 104.068 280.063 104.006C280.022 103.944 280 103.872 280 103.8V100.2C280 100.048 280.093 99.916 280.236 99.848L283.747 98.072C283.818 98.024 283.907 98 284 98C284.093 98 284.182 98.024 284.253 98.072L287.764 99.848C287.907 99.916 288 100.048 288 100.2V103.8ZM284 100C283.411 100 282.845 100.211 282.429 100.586C282.012 100.961 281.778 101.47 281.778 102C281.778 102.53 282.012 103.039 282.429 103.414C282.845 103.789 283.411 104 284 104C284.589 104 285.155 103.789 285.571 103.414C285.988 103.039 286.222 102.53 286.222 102C286.222 101.47 285.988 100.961 285.571 100.586C285.155 100.211 284.589 100 284 100Z" fill="#6D7D84"/>
</g>
<g filter="url(#filter5_i_348_277)">
<path d="M133 103.8C133 103.952 132.907 104.084 132.764 104.152L129.253 105.928C129.182 105.976 129.093 106 129 106C128.907 106 128.818 105.976 128.747 105.928L125.236 104.152C125.164 104.118 125.105 104.068 125.063 104.006C125.022 103.944 125 103.872 125 103.8V100.2C125 100.048 125.093 99.916 125.236 99.848L128.747 98.072C128.818 98.024 128.907 98 129 98C129.093 98 129.182 98.024 129.253 98.072L132.764 99.848C132.907 99.916 133 100.048 133 100.2V103.8ZM129 100C128.411 100 127.845 100.211 127.429 100.586C127.012 100.961 126.778 101.47 126.778 102C126.778 102.53 127.012 103.039 127.429 103.414C127.845 103.789 128.411 104 129 104C129.589 104 130.155 103.789 130.571 103.414C130.988 103.039 131.222 102.53 131.222 102C131.222 101.47 130.988 100.961 130.571 100.586C130.155 100.211 129.589 100 129 100Z" fill="#6D7D84"/>
</g>
<g filter="url(#filter6_i_348_277)">
<path d="M400 71.8C400 71.952 399.907 72.084 399.764 72.152L396.253 73.928C396.182 73.976 396.093 74 396 74C395.907 74 395.818 73.976 395.747 73.928L392.236 72.152C392.164 72.1183 392.105 72.0677 392.063 72.0056C392.022 71.9436 392 71.8724 392 71.8V68.2C392 68.048 392.093 67.916 392.236 67.848L395.747 66.072C395.818 66.024 395.907 66 396 66C396.093 66 396.182 66.024 396.253 66.072L399.764 67.848C399.907 67.916 400 68.048 400 68.2V71.8ZM396 68C395.411 68 394.845 68.2107 394.429 68.5858C394.012 68.9609 393.778 69.4696 393.778 70C393.778 70.5304 394.012 71.0391 394.429 71.4142C394.845 71.7893 395.411 72 396 72C396.589 72 397.155 71.7893 397.571 71.4142C397.988 71.0391 398.222 70.5304 398.222 70C398.222 69.4696 397.988 68.9609 397.571 68.5858C397.155 68.2107 396.589 68 396 68Z" fill="#6D7D84"/>
</g>
<g filter="url(#filter7_i_348_277)">
<path d="M18 71.8C18 71.952 17.9067 72.084 17.7644 72.152L14.2533 73.928C14.1822 73.976 14.0933 74 14 74C13.9067 74 13.8178 73.976 13.7467 73.928L10.2356 72.152C10.1643 72.1183 10.1047 72.0677 10.0631 72.0056C10.0216 71.9436 9.99978 71.8724 10 71.8V68.2C10 68.048 10.0933 67.916 10.2356 67.848L13.7467 66.072C13.8178 66.024 13.9067 66 14 66C14.0933 66 14.1822 66.024 14.2533 66.072L17.7644 67.848C17.9067 67.916 18 68.048 18 68.2V71.8ZM14 68C13.4106 68 12.8454 68.2107 12.4287 68.5858C12.0119 68.9609 11.7778 69.4696 11.7778 70C11.7778 70.5304 12.0119 71.0391 12.4287 71.4142C12.8454 71.7893 13.4106 72 14 72C14.5894 72 15.1546 71.7893 15.5713 71.4142C15.9881 71.0391 16.2222 70.5304 16.2222 70C16.2222 69.4696 15.9881 68.9609 15.5713 68.5858C15.1546 68.2107 14.5894 68 14 68Z" fill="#6D7D84"/>
</g>
<g filter="url(#filter8_i_348_277)">
<path d="M199 331.8C199 331.952 198.907 332.084 198.764 332.152L195.253 333.928C195.182 333.976 195.093 334 195 334C194.907 334 194.818 333.976 194.747 333.928L191.236 332.152C191.164 332.118 191.105 332.068 191.063 332.006C191.022 331.944 191 331.872 191 331.8V328.2C191 328.048 191.093 327.916 191.236 327.848L194.747 326.072C194.818 326.024 194.907 326 195 326C195.093 326 195.182 326.024 195.253 326.072L198.764 327.848C198.907 327.916 199 328.048 199 328.2V331.8ZM195 328C194.411 328 193.845 328.211 193.429 328.586C193.012 328.961 192.778 329.47 192.778 330C192.778 330.53 193.012 331.039 193.429 331.414C193.845 331.789 194.411 332 195 332C195.589 332 196.155 331.789 196.571 331.414C196.988 331.039 197.222 330.53 197.222 330C197.222 329.47 196.988 328.961 196.571 328.586C196.155 328.211 195.589 328 195 328Z" fill="#6D7D84"/>
</g>
<g filter="url(#filter9_i_348_277)">
<path d="M220 331.8C220 331.952 219.907 332.084 219.764 332.152L216.253 333.928C216.182 333.976 216.093 334 216 334C215.907 334 215.818 333.976 215.747 333.928L212.236 332.152C212.164 332.118 212.105 332.068 212.063 332.006C212.022 331.944 212 331.872 212 331.8V328.2C212 328.048 212.093 327.916 212.236 327.848L215.747 326.072C215.818 326.024 215.907 326 216 326C216.093 326 216.182 326.024 216.253 326.072L219.764 327.848C219.907 327.916 220 328.048 220 328.2V331.8ZM216 328C215.411 328 214.845 328.211 214.429 328.586C214.012 328.961 213.778 329.47 213.778 330C213.778 330.53 214.012 331.039 214.429 331.414C214.845 331.789 215.411 332 216 332C216.589 332 217.155 331.789 217.571 331.414C217.988 331.039 218.222 330.53 218.222 330C218.222 329.47 217.988 328.961 217.571 328.586C217.155 328.211 216.589 328 216 328Z" fill="#6D7D84"/>
</g>
<defs>
<filter id="filter0_d_348_277" x="449.992" y="348.5" width="2702.02" height="15" filterUnits="userSpaceOnUse" color-interpolation-filters="sRGB">
<feFlood flood-opacity="0" result="BackgroundImageFix"/>
<feColorMatrix in="SourceAlpha" type="matrix" values="0 0 0 0 0 0 0 0 0 0 0 0 0 0 0 0 0 0 127 0" result="hardAlpha"/>
<feOffset dy="4"/>
<feGaussianBlur stdDeviation="2"/>
<feComposite in2="hardAlpha" operator="out"/>
<feColorMatrix type="matrix" values="0 0 0 0 0 0 0 0 0 0 0 0 0 0 0 0 0 0 0.25 0"/>
<feBlend mode="normal" in2="BackgroundImageFix" result="effect1_dropShadow_348_277"/>
<feBlend mode="normal" in="SourceGraphic" in2="effect1_dropShadow_348_277" result="shape"/>
</filter>
<filter id="filter1_i_348_277" x="202" y="445" width="8" height="12" filterUnits="userSpaceOnUse" color-interpolation-filters="sRGB">
<feFlood flood-opacity="0" result="BackgroundImageFix"/>
<feBlend mode="normal" in="SourceGraphic" in2="BackgroundImageFix" result="shape"/>
<feColorMatrix in="SourceAlpha" type="matrix" values="0 0 0 0 0 0 0 0 0 0 0 0 0 0 0 0 0 0 127 0" result="hardAlpha"/>
<feOffset dy="4"/>
<feGaussianBlur stdDeviation="2"/>
<feComposite in2="hardAlpha" operator="arithmetic" k2="-1" k3="1"/>
<feColorMatrix type="matrix" values="0 0 0 0 0 0 0 0 0 0 0 0 0 0 0 0 0 0 0.25 0"/>
<feBlend mode="normal" in2="shape" result="effect1_innerShadow_348_277"/>
</filter>
<filter id="filter2_i_348_277" x="280" y="66" width="8" height="12" filterUnits="userSpaceOnUse" color-interpolation-filters="sRGB">
<feFlood flood-opacity="0" result="BackgroundImageFix"/>
<feBlend mode="normal" in="SourceGraphic" in2="BackgroundImageFix" result="shape"/>
<feColorMatrix in="SourceAlpha" type="matrix" values="0 0 0 0 0 0 0 0 0 0 0 0 0 0 0 0 0 0 127 0" result="hardAlpha"/>
<feOffset dy="4"/>
<feGaussianBlur stdDeviation="2"/>
<feComposite in2="hardAlpha" operator="arithmetic" k2="-1" k3="1"/>
<feColorMatrix type="matrix" values="0 0 0 0 0 0 0 0 0 0 0 0 0 0 0 0 0 0 0.25 0"/>
<feBlend mode="normal" in2="shape" result="effect1_innerShadow_348_277"/>
</filter>
<filter id="filter3_i_348_277" x="125" y="66" width="8" height="12" filterUnits="userSpaceOnUse" color-interpolation-filters="sRGB">
<feFlood flood-opacity="0" result="BackgroundImageFix"/>
<feBlend mode="normal" in="SourceGraphic" in2="BackgroundImageFix" result="shape"/>
<feColorMatrix in="SourceAlpha" type="matrix" values="0 0 0 0 0 0 0 0 0 0 0 0 0 0 0 0 0 0 127 0" result="hardAlpha"/>
<feOffset dy="4"/>
<feGaussianBlur stdDeviation="2"/>
<feComposite in2="hardAlpha" operator="arithmetic" k2="-1" k3="1"/>
<feColorMatrix type="matrix" values="0 0 0 0 0 0 0 0 0 0 0 0 0 0 0 0 0 0 0.25 0"/>
<feBlend mode="normal" in2="shape" result="effect1_innerShadow_348_277"/>
</filter>
<filter id="filter4_i_348_277" x="280" y="98" width="8" height="12" filterUnits="userSpaceOnUse" color-interpolation-filters="sRGB">
<feFlood flood-opacity="0" result="BackgroundImageFix"/>
<feBlend mode="normal" in="SourceGraphic" in2="BackgroundImageFix" result="shape"/>
<feColorMatrix in="SourceAlpha" type="matrix" values="0 0 0 0 0 0 0 0 0 0 0 0 0 0 0 0 0 0 127 0" result="hardAlpha"/>
<feOffset dy="4"/>
<feGaussianBlur stdDeviation="2"/>
<feComposite in2="hardAlpha" operator="arithmetic" k2="-1" k3="1"/>
<feColorMatrix type="matrix" values="0 0 0 0 0 0 0 0 0 0 0 0 0 0 0 0 0 0 0.25 0"/>
<feBlend mode="normal" in2="shape" result="effect1_innerShadow_348_277"/>
</filter>
<filter id="filter5_i_348_277" x="125" y="98" width="8" height="12" filterUnits="userSpaceOnUse" color-interpolation-filters="sRGB">
<feFlood flood-opacity="0" result="BackgroundImageFix"/>
<feBlend mode="normal" in="SourceGraphic" in2="BackgroundImageFix" result="shape"/>
<feColorMatrix in="SourceAlpha" type="matrix" values="0 0 0 0 0 0 0 0 0 0 0 0 0 0 0 0 0 0 127 0" result="hardAlpha"/>
<feOffset dy="4"/>
<feGaussianBlur stdDeviation="2"/>
<feComposite in2="hardAlpha" operator="arithmetic" k2="-1" k3="1"/>
<feColorMatrix type="matrix" values="0 0 0 0 0 0 0 0 0 0 0 0 0 0 0 0 0 0 0.25 0"/>
<feBlend mode="normal" in2="shape" result="effect1_innerShadow_348_277"/>
</filter>
<filter id="filter6_i_348_277" x="392" y="66" width="8" height="12" filterUnits="userSpaceOnUse" color-interpolation-filters="sRGB">
<feFlood flood-opacity="0" result="BackgroundImageFix"/>
<feBlend mode="normal" in="SourceGraphic" in2="BackgroundImageFix" result="shape"/>
<feColorMatrix in="SourceAlpha" type="matrix" values="0 0 0 0 0 0 0 0 0 0 0 0 0 0 0 0 0 0 127 0" result="hardAlpha"/>
<feOffset dy="4"/>
<feGaussianBlur stdDeviation="2"/>
<feComposite in2="hardAlpha" operator="arithmetic" k2="-1" k3="1"/>
<feColorMatrix type="matrix" values="0 0 0 0 0 0 0 0 0 0 0 0 0 0 0 0 0 0 0.25 0"/>
<feBlend mode="normal" in2="shape" result="effect1_innerShadow_348_277"/>
</filter>
<filter id="filter7_i_348_277" x="10" y="66" width="8" height="12" filterUnits="userSpaceOnUse" color-interpolation-filters="sRGB">
<feFlood flood-opacity="0" result="BackgroundImageFix"/>
<feBlend mode="normal" in="SourceGraphic" in2="BackgroundImageFix" result="shape"/>
<feColorMatrix in="SourceAlpha" type="matrix" values="0 0 0 0 0 0 0 0 0 0 0 0 0 0 0 0 0 0 127 0" result="hardAlpha"/>
<feOffset dy="4"/>
<feGaussianBlur stdDeviation="2"/>
<feComposite in2="hardAlpha" operator="arithmetic" k2="-1" k3="1"/>
<feColorMatrix type="matrix" values="0 0 0 0 0 0 0 0 0 0 0 0 0 0 0 0 0 0 0.25 0"/>
<feBlend mode="normal" in2="shape" result="effect1_innerShadow_348_277"/>
</filter>
<filter id="filter8_i_348_277" x="191" y="326" width="8" height="12" filterUnits="userSpaceOnUse" color-interpolation-filters="sRGB">
<feFlood flood-opacity="0" result="BackgroundImageFix"/>
<feBlend mode="normal" in="SourceGraphic" in2="BackgroundImageFix" result="shape"/>
<feColorMatrix in="SourceAlpha" type="matrix" values="0 0 0 0 0 0 0 0 0 0 0 0 0 0 0 0 0 0 127 0" result="hardAlpha"/>
<feOffset dy="4"/>
<feGaussianBlur stdDeviation="2"/>
<feComposite in2="hardAlpha" operator="arithmetic" k2="-1" k3="1"/>
<feColorMatrix type="matrix" values="0 0 0 0 0 0 0 0 0 0 0 0 0 0 0 0 0 0 0.25 0"/>
<feBlend mode="normal" in2="shape" result="effect1_innerShadow_348_277"/>
</filter>
<filter id="filter9_i_348_277" x="212" y="326" width="8" height="12" filterUnits="userSpaceOnUse" color-interpolation-filters="sRGB">
<feFlood flood-opacity="0" result="BackgroundImageFix"/>
<feBlend mode="normal" in="SourceGraphic" in2="BackgroundImageFix" result="shape"/>
<feColorMatrix in="SourceAlpha" type="matrix" values="0 0 0 0 0 0 0 0 0 0 0 0 0 0 0 0 0 0 127 0" result="hardAlpha"/>
<feOffset dy="4"/>
<feGaussianBlur stdDeviation="2"/>
<feComposite in2="hardAlpha" operator="arithmetic" k2="-1" k3="1"/>
<feColorMatrix type="matrix" values="0 0 0 0 0 0 0 0 0 0 0 0 0 0 0 0 0 0 0.25 0"/>
<feBlend mode="normal" in2="shape" result="effect1_innerShadow_348_277"/>
</filter>
</defs>
</svg>
