<svg width="735" height="143" viewBox="0 0 735 143" fill="none" xmlns="http://www.w3.org/2000/svg">
<path d="M180.631 80.6963H185.123C185.009 83.1377 184.513 85.2454 183.634 87.0195C182.771 88.7773 181.51 90.1283 179.85 91.0723C178.206 92.0163 176.147 92.4883 173.673 92.4883C171.899 92.4883 170.296 92.1383 168.863 91.4385C167.431 90.7386 166.202 89.7376 165.177 88.4355C164.168 87.1172 163.395 85.5384 162.857 83.6992C162.32 81.86 162.052 79.793 162.052 77.498V70.9307C162.052 68.652 162.32 66.5931 162.857 64.7539C163.411 62.9147 164.2 61.3441 165.226 60.042C166.267 58.7236 167.529 57.7145 169.01 57.0146C170.507 56.3148 172.2 55.9648 174.088 55.9648C176.399 55.9648 178.352 56.4287 179.947 57.3564C181.559 58.2679 182.796 59.6107 183.658 61.3848C184.537 63.1426 185.025 65.2992 185.123 67.8545H180.631C180.517 65.9827 180.224 64.4609 179.752 63.2891C179.28 62.1009 178.58 61.2301 177.652 60.6768C176.741 60.1071 175.553 59.8223 174.088 59.8223C172.786 59.8223 171.655 60.0827 170.694 60.6035C169.75 61.1243 168.969 61.873 168.351 62.8496C167.748 63.8099 167.293 64.9736 166.983 66.3408C166.69 67.6917 166.544 69.2054 166.544 70.8818V77.498C166.544 79.0605 166.666 80.5173 166.91 81.8682C167.171 83.2191 167.577 84.4072 168.131 85.4326C168.701 86.4417 169.441 87.2311 170.353 87.8008C171.264 88.3704 172.371 88.6553 173.673 88.6553C175.317 88.6553 176.619 88.3867 177.579 87.8496C178.539 87.3125 179.247 86.458 179.703 85.2861C180.175 84.1143 180.484 82.5843 180.631 80.6963ZM214.322 71.1504V77.3271C214.322 79.8337 214.046 82.0391 213.492 83.9434C212.955 85.8314 212.166 87.4102 211.124 88.6797C210.082 89.9492 208.829 90.9014 207.364 91.5361C205.899 92.1709 204.247 92.4883 202.408 92.4883C200.634 92.4883 199.015 92.1709 197.55 91.5361C196.085 90.9014 194.824 89.9492 193.766 88.6797C192.708 87.4102 191.886 85.8314 191.3 83.9434C190.73 82.0391 190.445 79.8337 190.445 77.3271V71.1504C190.445 68.6439 190.73 66.4466 191.3 64.5586C191.869 62.6543 192.683 61.0674 193.741 59.7979C194.799 58.5283 196.061 57.5762 197.525 56.9414C198.99 56.2904 200.61 55.9648 202.384 55.9648C204.223 55.9648 205.875 56.2904 207.34 56.9414C208.821 57.5762 210.074 58.5283 211.1 59.7979C212.141 61.0674 212.939 62.6543 213.492 64.5586C214.046 66.4466 214.322 68.6439 214.322 71.1504ZM209.879 77.3271V71.1016C209.879 69.1484 209.716 67.472 209.391 66.0723C209.065 64.6562 208.585 63.5007 207.95 62.6055C207.315 61.7103 206.534 61.0511 205.606 60.6279C204.679 60.1885 203.604 59.9688 202.384 59.9688C201.228 59.9688 200.187 60.1885 199.259 60.6279C198.347 61.0511 197.566 61.7103 196.915 62.6055C196.264 63.5007 195.759 64.6562 195.401 66.0723C195.06 67.472 194.889 69.1484 194.889 71.1016V77.3271C194.889 79.2965 195.06 80.9893 195.401 82.4053C195.759 83.805 196.264 84.9606 196.915 85.8721C197.582 86.7673 198.38 87.4346 199.308 87.874C200.235 88.2972 201.269 88.5088 202.408 88.5088C203.629 88.5088 204.703 88.2972 205.631 87.874C206.575 87.4346 207.356 86.7673 207.975 85.8721C208.609 84.9606 209.081 83.805 209.391 82.4053C209.716 80.9893 209.879 79.2965 209.879 77.3271ZM244.522 56.4531V92H240.006L225.772 64.583V92H221.28V56.4531H225.772L240.079 83.9434V56.4531H244.522ZM267.838 83.0156C267.838 82.1855 267.74 81.4531 267.545 80.8184C267.35 80.1673 267.008 79.5814 266.52 79.0605C266.031 78.5397 265.348 78.0433 264.469 77.5713C263.59 77.0993 262.475 76.6191 261.124 76.1309C259.659 75.61 258.333 75.0322 257.145 74.3975C255.956 73.7464 254.939 73.0059 254.093 72.1758C253.263 71.3457 252.62 70.3936 252.164 69.3193C251.708 68.2451 251.48 67.0163 251.48 65.6328C251.48 64.2493 251.716 62.9717 252.188 61.7998C252.677 60.6279 253.36 59.6107 254.239 58.748C255.134 57.8691 256.209 57.1855 257.462 56.6973C258.715 56.209 260.115 55.9648 261.661 55.9648C263.972 55.9648 265.917 56.4775 267.496 57.5029C269.091 58.512 270.296 59.8385 271.109 61.4824C271.923 63.11 272.33 64.8516 272.33 66.707H267.838C267.838 65.3724 267.618 64.1924 267.179 63.167C266.756 62.1253 266.088 61.3115 265.177 60.7256C264.282 60.1234 263.11 59.8223 261.661 59.8223C260.359 59.8223 259.285 60.0745 258.438 60.5791C257.608 61.0837 256.99 61.7673 256.583 62.6299C256.192 63.4925 255.997 64.4772 255.997 65.584C255.997 66.3327 256.127 67.0163 256.388 67.6348C256.648 68.237 257.047 68.7985 257.584 69.3193C258.137 69.8402 258.821 70.3203 259.635 70.7598C260.465 71.1992 261.441 71.6224 262.564 72.0293C264.306 72.599 265.795 73.2337 267.032 73.9336C268.269 74.6335 269.278 75.4229 270.06 76.3018C270.841 77.1644 271.41 78.1491 271.769 79.2559C272.143 80.3464 272.33 81.5833 272.33 82.9668C272.33 84.4154 272.086 85.7256 271.598 86.8975C271.126 88.0693 270.434 89.0703 269.522 89.9004C268.611 90.7305 267.512 91.3734 266.227 91.8291C264.941 92.2686 263.492 92.4883 261.881 92.4883C260.481 92.4883 259.106 92.2604 257.755 91.8047C256.42 91.349 255.208 90.6654 254.117 89.7539C253.027 88.8424 252.156 87.7194 251.505 86.3848C250.854 85.0339 250.528 83.4714 250.528 81.6973H255.021C255.021 82.918 255.2 83.9678 255.558 84.8467C255.916 85.7093 256.412 86.4255 257.047 86.9951C257.682 87.5648 258.406 87.988 259.22 88.2646C260.05 88.5251 260.937 88.6553 261.881 88.6553C263.183 88.6553 264.273 88.4274 265.152 87.9717C266.048 87.516 266.715 86.8649 267.154 86.0186C267.61 85.1722 267.838 84.1712 267.838 83.0156ZM289.64 56.4531V92H285.196V56.4531H289.64ZM298.99 56.4531V60.3105H275.87V56.4531H298.99ZM304.264 56.4531H314.2C316.511 56.4531 318.448 56.86 320.011 57.6738C321.59 58.4876 322.778 59.6921 323.575 61.2871C324.389 62.8659 324.796 64.8109 324.796 67.1221C324.796 68.7497 324.527 70.2389 323.99 71.5898C323.453 72.9245 322.672 74.0638 321.646 75.0078C320.621 75.9355 319.376 76.6273 317.911 77.083L316.69 77.5957H307.828L307.779 73.7627H314.151C315.519 73.7627 316.658 73.4697 317.569 72.8838C318.481 72.2816 319.164 71.4759 319.62 70.4668C320.076 69.4577 320.304 68.3428 320.304 67.1221C320.304 65.7549 320.1 64.5586 319.693 63.5332C319.286 62.5078 318.635 61.7184 317.74 61.165C316.861 60.5954 315.681 60.3105 314.2 60.3105H308.756V92H304.264V56.4531ZM321.329 92L314.249 75.8867L318.912 75.8623L326.139 91.707V92H321.329ZM347.525 56.4531H352.018V81.4775C352.018 84.1468 351.505 86.2871 350.479 87.8984C349.454 89.5098 348.103 90.6816 346.427 91.4141C344.767 92.1302 342.976 92.4883 341.056 92.4883C339.005 92.4883 337.158 92.1302 335.514 91.4141C333.87 90.6816 332.56 89.5098 331.583 87.8984C330.623 86.2871 330.143 84.1468 330.143 81.4775V56.4531H334.61V81.4775C334.61 83.333 334.871 84.7816 335.392 85.8232C335.929 86.8649 336.677 87.5973 337.638 88.0205C338.614 88.4437 339.754 88.6553 341.056 88.6553C342.374 88.6553 343.513 88.4437 344.474 88.0205C345.45 87.5973 346.199 86.8649 346.72 85.8232C347.257 84.7816 347.525 83.333 347.525 81.4775V56.4531ZM377.994 88.167V92H362.564V88.167H377.994ZM363.37 56.4531V92H358.878V56.4531H363.37ZM375.919 71.7363V75.5693H362.564V71.7363H375.919ZM377.75 56.4531V60.3105H362.564V56.4531H377.75ZM402.164 88.167V92H387.418V88.167H402.164ZM388.224 56.4531V92H383.731V56.4531H388.224ZM426.627 88.167V92H411.197V88.167H426.627ZM412.003 56.4531V92H407.511V56.4531H412.003ZM424.552 71.7363V75.5693H411.197V71.7363H424.552ZM426.383 56.4531V60.3105H411.197V56.4531H426.383ZM450.162 80.6963H454.654C454.54 83.1377 454.044 85.2454 453.165 87.0195C452.302 88.7773 451.041 90.1283 449.381 91.0723C447.737 92.0163 445.678 92.4883 443.204 92.4883C441.43 92.4883 439.827 92.1383 438.395 91.4385C436.962 90.7386 435.733 89.7376 434.708 88.4355C433.699 87.1172 432.926 85.5384 432.389 83.6992C431.852 81.86 431.583 79.793 431.583 77.498V70.9307C431.583 68.652 431.852 66.5931 432.389 64.7539C432.942 62.9147 433.731 61.3441 434.757 60.042C435.799 58.7236 437.06 57.7145 438.541 57.0146C440.038 56.3148 441.731 55.9648 443.619 55.9648C445.93 55.9648 447.883 56.4287 449.479 57.3564C451.09 58.2679 452.327 59.6107 453.189 61.3848C454.068 63.1426 454.557 65.2992 454.654 67.8545H450.162C450.048 65.9827 449.755 64.4609 449.283 63.2891C448.811 62.1009 448.111 61.2301 447.184 60.6768C446.272 60.1071 445.084 59.8223 443.619 59.8223C442.317 59.8223 441.186 60.0827 440.226 60.6035C439.282 61.1243 438.5 61.873 437.882 62.8496C437.28 63.8099 436.824 64.9736 436.515 66.3408C436.222 67.6917 436.075 69.2054 436.075 70.8818V77.498C436.075 79.0605 436.197 80.5173 436.441 81.8682C436.702 83.2191 437.109 84.4072 437.662 85.4326C438.232 86.4417 438.972 87.2311 439.884 87.8008C440.795 88.3704 441.902 88.6553 443.204 88.6553C444.848 88.6553 446.15 88.3867 447.11 87.8496C448.071 87.3125 448.779 86.458 449.234 85.2861C449.706 84.1143 450.016 82.5843 450.162 80.6963ZM471.427 56.4531V92H466.983V56.4531H471.427ZM480.777 56.4531V60.3105H457.657V56.4531H480.777ZM486.051 56.4531H495.987C498.299 56.4531 500.235 56.86 501.798 57.6738C503.377 58.4876 504.565 59.6921 505.362 61.2871C506.176 62.8659 506.583 64.8109 506.583 67.1221C506.583 68.7497 506.314 70.2389 505.777 71.5898C505.24 72.9245 504.459 74.0638 503.434 75.0078C502.408 75.9355 501.163 76.6273 499.698 77.083L498.478 77.5957H489.615L489.566 73.7627H495.938C497.306 73.7627 498.445 73.4697 499.356 72.8838C500.268 72.2816 500.951 71.4759 501.407 70.4668C501.863 69.4577 502.091 68.3428 502.091 67.1221C502.091 65.7549 501.887 64.5586 501.48 63.5332C501.074 62.5078 500.423 61.7184 499.527 61.165C498.648 60.5954 497.468 60.3105 495.987 60.3105H490.543V92H486.051V56.4531ZM503.116 92L496.036 75.8867L500.699 75.8623L507.926 91.707V92H503.116ZM517.276 56.4531V92H512.784V56.4531H517.276ZM542.887 80.6963H547.379C547.265 83.1377 546.769 85.2454 545.89 87.0195C545.027 88.7773 543.766 90.1283 542.105 91.0723C540.462 92.0163 538.403 92.4883 535.929 92.4883C534.155 92.4883 532.551 92.1383 531.119 91.4385C529.687 90.7386 528.458 89.7376 527.433 88.4355C526.424 87.1172 525.65 85.5384 525.113 83.6992C524.576 81.86 524.308 79.793 524.308 77.498V70.9307C524.308 68.652 524.576 66.5931 525.113 64.7539C525.667 62.9147 526.456 61.3441 527.481 60.042C528.523 58.7236 529.785 57.7145 531.266 57.0146C532.763 56.3148 534.456 55.9648 536.344 55.9648C538.655 55.9648 540.608 56.4287 542.203 57.3564C543.814 58.2679 545.051 59.6107 545.914 61.3848C546.793 63.1426 547.281 65.2992 547.379 67.8545H542.887C542.773 65.9827 542.48 64.4609 542.008 63.2891C541.536 62.1009 540.836 61.2301 539.908 60.6768C538.997 60.1071 537.809 59.8223 536.344 59.8223C535.042 59.8223 533.91 60.0827 532.95 60.6035C532.006 61.1243 531.225 61.873 530.606 62.8496C530.004 63.8099 529.549 64.9736 529.239 66.3408C528.946 67.6917 528.8 69.2054 528.8 70.8818V77.498C528.8 79.0605 528.922 80.5173 529.166 81.8682C529.426 83.2191 529.833 84.4072 530.387 85.4326C530.956 86.4417 531.697 87.2311 532.608 87.8008C533.52 88.3704 534.627 88.6553 535.929 88.6553C537.573 88.6553 538.875 88.3867 539.835 87.8496C540.795 87.3125 541.503 86.458 541.959 85.2861C542.431 84.1143 542.74 82.5843 542.887 80.6963ZM577.213 81.624V56.4531H581.681V81.624C581.681 83.9678 581.274 85.9453 580.46 87.5566C579.646 89.168 578.515 90.3968 577.066 91.2432C575.634 92.0732 573.982 92.4883 572.11 92.4883C570.271 92.4883 568.627 92.1139 567.179 91.3652C565.73 90.6165 564.591 89.4772 563.761 87.9473C562.947 86.4173 562.54 84.4886 562.54 82.1611H567.032C567.032 83.6585 567.252 84.8874 567.691 85.8477C568.147 86.8079 568.757 87.516 569.522 87.9717C570.287 88.4274 571.15 88.6553 572.11 88.6553C573.087 88.6553 573.958 88.3949 574.723 87.874C575.488 87.3369 576.09 86.5475 576.529 85.5059C576.985 84.4479 577.213 83.154 577.213 81.624ZM598.868 86.6045L607.413 56.4531H612.296L601.261 92H597.818L598.868 86.6045ZM591.202 56.4531L599.674 86.6045L600.797 92H597.354L586.319 56.4531H591.202ZM647.037 88.167V92H632.291V88.167H647.037ZM633.097 56.4531V92H628.604V56.4531H633.097ZM657.071 56.4531V92H652.628V56.4531H657.071ZM666.422 56.4531V60.3105H643.302V56.4531H666.422ZM679.728 92H673.673L673.722 88.167H679.728C681.86 88.167 683.593 87.7601 684.928 86.9463C686.262 86.1162 687.247 84.8955 687.882 83.2842C688.517 81.6566 688.834 79.6465 688.834 77.2539V71.1748C688.834 69.2868 688.655 67.6592 688.297 66.292C687.939 64.9248 687.402 63.8018 686.686 62.9229C685.969 62.0439 685.066 61.3929 683.976 60.9697C682.885 60.5303 681.607 60.3105 680.143 60.3105H673.551V56.4531H680.143C682.145 56.4531 683.951 56.7705 685.562 57.4053C687.174 58.0238 688.557 58.9596 689.713 60.2129C690.868 61.4499 691.747 62.988 692.35 64.8271C692.968 66.6663 693.277 68.7985 693.277 71.2236V77.2539C693.277 79.679 692.968 81.8112 692.35 83.6504C691.747 85.4896 690.86 87.0277 689.688 88.2646C688.517 89.5016 687.092 90.4375 685.416 91.0723C683.756 91.6908 681.86 92 679.728 92ZM676.163 56.4531V92H671.671V56.4531H676.163ZM711.222 59.6025L701.505 92H696.915L708.365 56.4531H711.246L711.222 59.6025ZM719.083 92L709.366 59.6025L709.317 56.4531H712.223L723.673 92H719.083ZM719.083 78.8408V82.6982H701.944V78.8408H719.083Z" fill="#00202E"/>
<path d="M5 56.2069L67.5 2L130 56.2069H5Z" fill="#00202E"/>
<path d="M16.1421 56.2069V133H118.858V56.2069H16.1421Z" fill="#00202E"/>
<path d="M97.6184 16.9416V28.9297L110.675 41.2653V16.9416H97.6184Z" fill="#00202E"/>
<path d="M5 56.2069L67.5 2L130 56.2069H5Z" stroke="#00202E" stroke-width="3"/>
<path d="M16.1421 56.2069V133H118.858V56.2069H16.1421Z" stroke="#00202E" stroke-width="3"/>
<path d="M97.6184 16.9416V28.9297L110.675 41.2653V16.9416H97.6184Z" stroke="#00202E" stroke-width="3"/>
<g opacity="0.13">
<g filter="url(#filter0_i_318_113)">
<path d="M97.4943 26.4481L87.1523 17L45.1949 73.8634H67.641L40 140L101 68.4395H82.069L97.4943 26.4481Z" fill="#FFBA00"/>
</g>
<path d="M82.069 68.9395H99.9168L41.6952 137.241L68.1023 74.0563L68.3919 73.3634H67.641H46.1852L87.225 17.7436L96.9092 26.5908L81.5996 68.2671L81.3526 68.9395H82.069Z" stroke="#FDD03B"/>
</g>
<g filter="url(#filter1_i_318_113)">
<path d="M93 15L69.3364 20.0641L44.1182 74.4211H61.172L36 143L93 64.0826H74.3455L93 15Z" fill="#FFBA00"/>
</g>
<path d="M74.3455 64.5826H92.0221L37.7203 139.764L61.6414 74.5934L61.8882 73.9211H61.172H44.9013L69.6849 20.5008L92.2062 15.6812L73.8781 63.9049L73.6205 64.5826H74.3455Z" stroke="#FDD03B"/>
<line x1="152" y1="109" x2="735" y2="109" stroke="#FFBA00" stroke-width="6"/>
<defs>
<filter id="filter0_i_318_113" x="40" y="17" width="61" height="127" filterUnits="userSpaceOnUse" color-interpolation-filters="sRGB">
<feFlood flood-opacity="0" result="BackgroundImageFix"/>
<feBlend mode="normal" in="SourceGraphic" in2="BackgroundImageFix" result="shape"/>
<feColorMatrix in="SourceAlpha" type="matrix" values="0 0 0 0 0 0 0 0 0 0 0 0 0 0 0 0 0 0 127 0" result="hardAlpha"/>
<feOffset dy="4"/>
<feGaussianBlur stdDeviation="2"/>
<feComposite in2="hardAlpha" operator="arithmetic" k2="-1" k3="1"/>
<feColorMatrix type="matrix" values="0 0 0 0 0 0 0 0 0 0 0 0 0 0 0 0 0 0 0.25 0"/>
<feBlend mode="normal" in2="shape" result="effect1_innerShadow_318_113"/>
</filter>
<filter id="filter1_i_318_113" x="36" y="15" width="57" height="132" filterUnits="userSpaceOnUse" color-interpolation-filters="sRGB">
<feFlood flood-opacity="0" result="BackgroundImageFix"/>
<feBlend mode="normal" in="SourceGraphic" in2="BackgroundImageFix" result="shape"/>
<feColorMatrix in="SourceAlpha" type="matrix" values="0 0 0 0 0 0 0 0 0 0 0 0 0 0 0 0 0 0 127 0" result="hardAlpha"/>
<feOffset dy="4"/>
<feGaussianBlur stdDeviation="2"/>
<feComposite in2="hardAlpha" operator="arithmetic" k2="-1" k3="1"/>
<feColorMatrix type="matrix" values="0 0 0 0 0 0 0 0 0 0 0 0 0 0 0 0 0 0 0.25 0"/>
<feBlend mode="normal" in2="shape" result="effect1_innerShadow_318_113"/>
</filter>
</defs>
</svg>
