<svg width="3186" height="494" viewBox="0 0 3186 494" fill="none" xmlns="http://www.w3.org/2000/svg">
<path d="M563.26 251.94L567.46 255.72C566.247 257.12 564.473 258.753 562.14 260.62C559.807 262.487 556.867 264.26 553.32 265.94C549.867 267.527 545.76 268.88 541 270C536.333 271.12 531.013 271.68 525.04 271.68C515.613 271.68 507.493 270.233 500.68 267.34C493.867 264.353 488.267 260.48 483.88 255.72C479.493 250.867 476.227 245.36 474.08 239.2C472.027 232.947 471 226.553 471 220.02C471 212.46 472.307 205.647 474.92 199.58C477.533 193.42 481.22 188.193 485.98 183.9C490.74 179.513 496.433 176.153 503.06 173.82C509.78 171.487 517.2 170.32 525.32 170.32C530.92 170.32 535.913 170.88 540.3 172C544.687 173.12 548.513 174.66 551.78 176.62C555.047 178.58 557.753 180.913 559.9 183.62C562.14 186.327 563.96 189.267 565.36 192.44H555C554.347 190.48 553.18 188.567 551.5 186.7C549.913 184.74 547.813 183.013 545.2 181.52C542.68 180.027 539.74 178.813 536.38 177.88C533.113 176.947 529.473 176.48 525.46 176.48C519.58 176.48 514.12 177.553 509.08 179.7C504.133 181.847 499.84 184.833 496.2 188.66C492.56 192.487 489.713 197.06 487.66 202.38C485.7 207.607 484.72 213.393 484.72 219.74C484.72 225.713 485.653 231.453 487.52 236.96C489.48 242.467 492.327 247.32 496.06 251.52C499.793 255.72 504.46 259.08 510.06 261.6C515.66 264.12 522.1 265.38 529.38 265.38C542.447 265.38 553.74 260.9 563.26 251.94ZM605.23 221C605.23 215.68 606.21 210.033 608.17 204.06C610.224 198.087 613.397 192.627 617.69 187.68C621.984 182.64 627.444 178.487 634.07 175.22C640.697 171.953 648.63 170.32 657.87 170.32C667.204 170.32 675.277 172 682.09 175.36C688.997 178.627 694.69 182.78 699.17 187.82C703.65 192.86 706.964 198.367 709.11 204.34C711.257 210.22 712.33 215.773 712.33 221C712.33 224.453 711.817 228.093 710.79 231.92C709.857 235.747 708.41 239.573 706.45 243.4C704.584 247.133 702.157 250.727 699.17 254.18C696.184 257.54 692.637 260.527 688.53 263.14C684.517 265.753 679.944 267.853 674.81 269.44C669.77 270.933 664.124 271.68 657.87 271.68C648.63 271.68 640.697 270.047 634.07 266.78C627.444 263.42 621.984 259.22 617.69 254.18C613.397 249.14 610.224 243.68 608.17 237.8C606.21 231.827 605.23 226.227 605.23 221ZM618.95 221C618.95 227.533 619.93 233.553 621.89 239.06C623.944 244.473 626.697 249.14 630.15 253.06C633.697 256.98 637.85 260.06 642.61 262.3C647.37 264.447 652.55 265.52 658.15 265.52C663.657 265.52 668.837 264.447 673.69 262.3C678.637 260.06 682.93 256.98 686.57 253.06C690.304 249.14 693.244 244.473 695.39 239.06C697.537 233.553 698.61 227.533 698.61 221C698.61 214.467 697.537 208.493 695.39 203.08C693.244 197.573 690.304 192.86 686.57 188.94C682.93 185.02 678.637 181.987 673.69 179.84C668.837 177.6 663.657 176.48 658.15 176.48C652.55 176.48 647.37 177.6 642.61 179.84C637.85 181.987 633.697 185.02 630.15 188.94C626.697 192.86 623.944 197.573 621.89 203.08C619.93 208.493 618.95 214.467 618.95 221ZM843.123 172H849.563V271.68H848.863L771.163 195.1H770.603V270H764.163V170.32H764.863L842.563 246.9H843.123V172ZM899.489 245.22H909.009C909.102 246.807 909.475 248.767 910.129 251.1C910.782 253.34 912.042 255.533 913.909 257.68C915.775 259.827 918.482 261.693 922.029 263.28C925.575 264.773 930.289 265.52 936.169 265.52C943.542 265.52 949.422 264.12 953.809 261.32C958.289 258.52 960.529 254.087 960.529 248.02C960.529 243.167 959.129 239.293 956.329 236.4C953.529 233.507 949.982 231.08 945.689 229.12C941.489 227.067 936.915 225.247 931.969 223.66C927.022 222.073 922.402 220.16 918.109 217.92C913.909 215.68 910.409 212.88 907.609 209.52C904.809 206.16 903.409 201.727 903.409 196.22C903.409 192.02 904.249 188.287 905.929 185.02C907.702 181.753 910.035 179.047 912.929 176.9C915.915 174.753 919.322 173.12 923.149 172C927.069 170.88 931.175 170.32 935.469 170.32C939.575 170.32 943.495 170.833 947.229 171.86C951.055 172.793 954.462 174.24 957.449 176.2C960.435 178.067 962.909 180.4 964.869 183.2C966.829 185.907 968.089 188.987 968.649 192.44H959.129C958.382 186.933 955.862 182.92 951.569 180.4C947.369 177.787 942.235 176.48 936.169 176.48C932.529 176.48 929.309 176.947 926.509 177.88C923.709 178.72 921.329 179.887 919.369 181.38C917.502 182.78 916.055 184.46 915.029 186.42C914.095 188.38 913.629 190.48 913.629 192.72C913.629 196.733 915.075 199.953 917.969 202.38C920.862 204.807 924.455 206.953 928.749 208.82C933.135 210.687 937.849 212.46 942.889 214.14C948.022 215.82 952.735 217.92 957.029 220.44C961.415 222.867 965.055 225.947 967.949 229.68C970.842 233.32 972.289 238.033 972.289 243.82C972.289 248.02 971.449 251.847 969.769 255.3C968.089 258.753 965.709 261.693 962.629 264.12C959.549 266.547 955.815 268.413 951.429 269.72C947.135 271.027 942.282 271.68 936.869 271.68C931.549 271.68 926.649 271.073 922.169 269.86C917.689 268.553 913.769 266.78 910.409 264.54C907.142 262.207 904.529 259.407 902.569 256.14C900.702 252.873 899.675 249.233 899.489 245.22ZM1062.87 270H1050.13V179.7H1012.61V172H1100.39V179.7H1062.87V270ZM1147.99 172H1179.77C1186.02 172 1191.2 172.887 1195.31 174.66C1199.41 176.34 1202.63 178.487 1204.97 181.1C1207.39 183.62 1209.07 186.373 1210.01 189.36C1211.03 192.347 1211.55 195.1 1211.55 197.62C1211.55 200.42 1211.08 203.313 1210.15 206.3C1209.21 209.193 1207.72 211.9 1205.67 214.42C1203.61 216.94 1200.95 219.04 1197.69 220.72C1194.51 222.4 1190.69 223.38 1186.21 223.66V224.22L1187.61 224.92C1188.73 225.48 1189.66 226.18 1190.41 227.02C1191.25 227.86 1192.27 229.213 1193.49 231.08C1194.79 232.947 1196.52 235.607 1198.67 239.06C1200.81 242.42 1203.85 246.947 1207.77 252.64C1209.07 254.6 1210.33 256.373 1211.55 257.96C1212.76 259.453 1214.02 260.76 1215.33 261.88C1216.63 262.907 1218.03 263.7 1219.53 264.26C1221.02 264.82 1222.75 265.1 1224.71 265.1C1225.17 265.1 1225.64 265.1 1226.11 265.1C1226.57 265.007 1227.04 264.913 1227.51 264.82V270C1226.2 270.747 1224.89 271.213 1223.59 271.4C1222.28 271.587 1220.6 271.68 1218.55 271.68C1215.75 271.68 1213.32 271.307 1211.27 270.56C1209.31 269.813 1207.53 268.833 1205.95 267.62C1204.36 266.313 1202.87 264.773 1201.47 263C1200.16 261.227 1198.81 259.267 1197.41 257.12L1186.35 240.74C1184.67 238.127 1183.22 235.933 1182.01 234.16C1180.79 232.387 1179.49 230.94 1178.09 229.82C1176.69 228.7 1175.1 227.907 1173.33 227.44C1171.65 226.973 1169.5 226.74 1166.89 226.74H1160.73V270H1147.99V172ZM1160.73 178.16V220.44H1175.15C1178.88 220.44 1182.15 219.787 1184.95 218.48C1187.84 217.173 1190.27 215.493 1192.23 213.44C1194.19 211.293 1195.63 208.96 1196.57 206.44C1197.59 203.827 1198.11 201.26 1198.11 198.74C1198.11 195.753 1197.55 193 1196.43 190.48C1195.4 187.96 1193.86 185.813 1191.81 184.04C1189.75 182.173 1187.28 180.727 1184.39 179.7C1181.59 178.673 1178.41 178.16 1174.87 178.16H1160.73ZM1270.88 172H1283.62V235.98C1283.62 237.847 1283.66 239.713 1283.76 241.58C1283.85 243.447 1284.18 245.313 1284.74 247.18C1285.3 248.953 1286.14 250.773 1287.26 252.64C1288.38 254.507 1290.01 256.373 1292.16 258.24C1294.86 260.667 1297.71 262.487 1300.7 263.7C1303.78 264.913 1307.28 265.52 1311.2 265.52C1315.77 265.52 1320.16 264.867 1324.36 263.56C1328.56 262.253 1332.34 259.78 1335.7 256.14C1337.56 254.087 1338.96 252.033 1339.9 249.98C1340.92 247.927 1341.67 245.873 1342.14 243.82C1342.6 241.673 1342.88 239.573 1342.98 237.52C1343.07 235.373 1343.12 233.273 1343.12 231.22V172H1349.28V235.84C1349.28 240.787 1348.48 245.453 1346.9 249.84C1345.31 254.133 1342.93 257.913 1339.76 261.18C1336.68 264.447 1332.8 267.013 1328.14 268.88C1323.56 270.747 1318.29 271.68 1312.32 271.68C1302.8 271.68 1295.28 270.373 1289.78 267.76C1284.27 265.053 1280.12 261.74 1277.32 257.82C1274.52 253.807 1272.74 249.513 1272 244.94C1271.25 240.273 1270.88 236.027 1270.88 232.2V172ZM1405.24 172H1468.52V179.7H1417.98V214.84H1461.38V221.28H1417.98V262.3H1468.52V270H1405.24V172ZM1517.46 270V172H1530.2V262.3H1580.74V270H1517.46ZM1629.68 172H1692.96V179.7H1642.42V214.84H1685.82V221.28H1642.42V262.3H1692.96V270H1629.68V172ZM1824.35 251.94L1828.55 255.72C1827.34 257.12 1825.57 258.753 1823.23 260.62C1820.9 262.487 1817.96 264.26 1814.41 265.94C1810.96 267.527 1806.85 268.88 1802.09 270C1797.43 271.12 1792.11 271.68 1786.13 271.68C1776.71 271.68 1768.59 270.233 1761.77 267.34C1754.96 264.353 1749.36 260.48 1744.97 255.72C1740.59 250.867 1737.32 245.36 1735.17 239.2C1733.12 232.947 1732.09 226.553 1732.09 220.02C1732.09 212.46 1733.4 205.647 1736.01 199.58C1738.63 193.42 1742.31 188.193 1747.07 183.9C1751.83 179.513 1757.53 176.153 1764.15 173.82C1770.87 171.487 1778.29 170.32 1786.41 170.32C1792.01 170.32 1797.01 170.88 1801.39 172C1805.78 173.12 1809.61 174.66 1812.87 176.62C1816.14 178.58 1818.85 180.913 1820.99 183.62C1823.23 186.327 1825.05 189.267 1826.45 192.44H1816.09C1815.44 190.48 1814.27 188.567 1812.59 186.7C1811.01 184.74 1808.91 183.013 1806.29 181.52C1803.77 180.027 1800.83 178.813 1797.47 177.88C1794.21 176.947 1790.57 176.48 1786.55 176.48C1780.67 176.48 1775.21 177.553 1770.17 179.7C1765.23 181.847 1760.93 184.833 1757.29 188.66C1753.65 192.487 1750.81 197.06 1748.75 202.38C1746.79 207.607 1745.81 213.393 1745.81 219.74C1745.81 225.713 1746.75 231.453 1748.61 236.96C1750.57 242.467 1753.42 247.32 1757.15 251.52C1760.89 255.72 1765.55 259.08 1771.15 261.6C1776.75 264.12 1783.19 265.38 1790.47 265.38C1803.54 265.38 1814.83 260.9 1824.35 251.94ZM1912.38 270H1899.64V179.7H1862.12V172H1949.9V179.7H1912.38V270ZM1997.5 172H2029.28C2035.54 172 2040.72 172.887 2044.82 174.66C2048.93 176.34 2052.15 178.487 2054.48 181.1C2056.91 183.62 2058.59 186.373 2059.52 189.36C2060.55 192.347 2061.06 195.1 2061.06 197.62C2061.06 200.42 2060.6 203.313 2059.66 206.3C2058.73 209.193 2057.24 211.9 2055.18 214.42C2053.13 216.94 2050.47 219.04 2047.2 220.72C2044.03 222.4 2040.2 223.38 2035.72 223.66V224.22L2037.12 224.92C2038.24 225.48 2039.18 226.18 2039.92 227.02C2040.76 227.86 2041.79 229.213 2043 231.08C2044.31 232.947 2046.04 235.607 2048.18 239.06C2050.33 242.42 2053.36 246.947 2057.28 252.64C2058.59 254.6 2059.85 256.373 2061.06 257.96C2062.28 259.453 2063.54 260.76 2064.84 261.88C2066.15 262.907 2067.55 263.7 2069.04 264.26C2070.54 264.82 2072.26 265.1 2074.22 265.1C2074.69 265.1 2075.16 265.1 2075.62 265.1C2076.09 265.007 2076.56 264.913 2077.02 264.82V270C2075.72 270.747 2074.41 271.213 2073.1 271.4C2071.8 271.587 2070.12 271.68 2068.06 271.68C2065.26 271.68 2062.84 271.307 2060.78 270.56C2058.82 269.813 2057.05 268.833 2055.46 267.62C2053.88 266.313 2052.38 264.773 2050.98 263C2049.68 261.227 2048.32 259.267 2046.92 257.12L2035.86 240.74C2034.18 238.127 2032.74 235.933 2031.52 234.16C2030.31 232.387 2029 230.94 2027.6 229.82C2026.2 228.7 2024.62 227.907 2022.84 227.44C2021.16 226.973 2019.02 226.74 2016.4 226.74H2010.24V270H1997.5V172ZM2010.24 178.16V220.44H2024.66C2028.4 220.44 2031.66 219.787 2034.46 218.48C2037.36 217.173 2039.78 215.493 2041.74 213.44C2043.7 211.293 2045.15 208.96 2046.08 206.44C2047.11 203.827 2047.62 201.26 2047.62 198.74C2047.62 195.753 2047.06 193 2045.94 190.48C2044.92 187.96 2043.38 185.813 2041.32 184.04C2039.27 182.173 2036.8 180.727 2033.9 179.7C2031.1 178.673 2027.93 178.16 2024.38 178.16H2010.24ZM2131.59 172H2144.33V270H2131.59V172ZM2294.01 251.94L2298.21 255.72C2297 257.12 2295.22 258.753 2292.89 260.62C2290.56 262.487 2287.62 264.26 2284.07 265.94C2280.62 267.527 2276.51 268.88 2271.75 270C2267.08 271.12 2261.76 271.68 2255.79 271.68C2246.36 271.68 2238.24 270.233 2231.43 267.34C2224.62 264.353 2219.02 260.48 2214.63 255.72C2210.24 250.867 2206.98 245.36 2204.83 239.2C2202.78 232.947 2201.75 226.553 2201.75 220.02C2201.75 212.46 2203.06 205.647 2205.67 199.58C2208.28 193.42 2211.97 188.193 2216.73 183.9C2221.49 179.513 2227.18 176.153 2233.81 173.82C2240.53 171.487 2247.95 170.32 2256.07 170.32C2261.67 170.32 2266.66 170.88 2271.05 172C2275.44 173.12 2279.26 174.66 2282.53 176.62C2285.8 178.58 2288.5 180.913 2290.65 183.62C2292.89 186.327 2294.71 189.267 2296.11 192.44H2285.75C2285.1 190.48 2283.93 188.567 2282.25 186.7C2280.66 184.74 2278.56 183.013 2275.95 181.52C2273.43 180.027 2270.49 178.813 2267.13 177.88C2263.86 176.947 2260.22 176.48 2256.21 176.48C2250.33 176.48 2244.87 177.553 2239.83 179.7C2234.88 181.847 2230.59 184.833 2226.95 188.66C2223.31 192.487 2220.46 197.06 2218.41 202.38C2216.45 207.607 2215.47 213.393 2215.47 219.74C2215.47 225.713 2216.4 231.453 2218.27 236.96C2220.23 242.467 2223.08 247.32 2226.81 251.52C2230.54 255.72 2235.21 259.08 2240.81 261.6C2246.41 264.12 2252.85 265.38 2260.13 265.38C2273.2 265.38 2284.49 260.9 2294.01 251.94ZM2449.47 172H2462.21V242.28C2462.21 245.267 2461.97 248.487 2461.51 251.94C2461.04 255.393 2459.87 258.613 2458.01 261.6C2456.23 264.493 2453.48 266.92 2449.75 268.88C2446.01 270.747 2440.93 271.68 2434.49 271.68C2425.53 271.68 2418.81 269.72 2414.33 265.8C2409.85 261.88 2407.51 256.327 2407.33 249.14H2419.51C2419.51 250.633 2419.74 252.36 2420.21 254.32C2420.77 256.187 2421.61 257.96 2422.73 259.64C2423.94 261.32 2425.53 262.72 2427.49 263.84C2429.54 264.96 2432.11 265.52 2435.19 265.52C2438.73 265.52 2441.44 264.773 2443.31 263.28C2445.27 261.693 2446.71 259.78 2447.65 257.54C2448.58 255.207 2449.09 252.733 2449.19 250.12C2449.37 247.413 2449.47 244.94 2449.47 242.7V172ZM2511.27 172H2526.39L2559.99 252.64H2560.55L2593.17 172H2600.45L2560.69 270H2552.29L2511.27 172ZM2726.43 270V172H2739.17V262.3H2789.71V270H2726.43ZM2852.49 270H2839.75V179.7H2802.23V172H2890.01V179.7H2852.49V270ZM2939.01 270V172H2971.21C2978.96 172 2986.05 173.26 2992.49 175.78C2998.93 178.207 3004.44 181.613 3009.01 186C3013.68 190.293 3017.27 195.427 3019.79 201.4C3022.4 207.373 3023.71 213.813 3023.71 220.72C3023.71 227.907 3022.36 234.533 3019.65 240.6C3017.04 246.573 3013.4 251.753 3008.73 256.14C3004.16 260.527 2998.79 263.933 2992.63 266.36C2986.47 268.787 2979.89 270 2972.89 270H2939.01ZM2951.75 263.84H2967.15C2974.8 263.84 2981.29 262.58 2986.61 260.06C2992.02 257.447 2996.46 254.087 2999.91 249.98C3003.36 245.873 3005.88 241.3 3007.47 236.26C3009.06 231.127 3009.85 226.04 3009.85 221C3009.85 215.4 3008.92 210.033 3007.05 204.9C3005.18 199.673 3002.43 195.1 2998.79 191.18C2995.24 187.167 2990.81 183.993 2985.49 181.66C2980.17 179.327 2974.06 178.16 2967.15 178.16H2951.75V263.84ZM3127.12 241.16H3078.82L3066.5 270H3060.06L3101.5 172H3108.5L3154.14 270H3140.56L3127.12 241.16ZM3124.18 234.86L3102.2 187.68H3101.64L3081.48 234.86H3124.18Z" fill="#00202E"/>
<g filter="url(#filter0_d_348_277)">
<path d="M464 351C888.468 352.425 1255.5 353 1811 353C2366.5 353 2733.53 352.425 3158 351" stroke="#00202E" stroke-width="5"/>
</g>
<path d="M157.976 368.761L224.556 146.982L157.976 141.764L266.926 0L224.556 108.715L288.543 97.4084L157.976 368.761Z" fill="#FEB900" fill-opacity="0.28"/>
<path d="M226.741 494L30.8907 62.6197H169.292V109.585H128.381L237.186 332.232L289.848 220.908L342.51 109.585H301.599V62.6197H440L226.741 494Z" fill="#00202E" fill-opacity="0.5"/>
<path d="M216.296 467.039L10 62.6197H148.401V109.585H107.49L216.296 332.232L321.619 109.585H280.708V62.6197H419.109L216.296 467.039Z" fill="#00202E"/>
<path d="M147.53 368.761L214.111 146.982L147.53 141.764L256.48 0L214.111 108.715L278.097 97.4084L147.53 368.761Z" fill="#FEB900"/>
<g filter="url(#filter1_i_348_277)">
<path d="M200 450.8C200 450.952 199.907 451.084 199.764 451.152L196.253 452.928C196.182 452.976 196.093 453 196 453C195.907 453 195.818 452.976 195.747 452.928L192.236 451.152C192.164 451.118 192.105 451.068 192.063 451.006C192.022 450.944 192 450.872 192 450.8V447.2C192 447.048 192.093 446.916 192.236 446.848L195.747 445.072C195.818 445.024 195.907 445 196 445C196.093 445 196.182 445.024 196.253 445.072L199.764 446.848C199.907 446.916 200 447.048 200 447.2V450.8ZM196 447C195.411 447 194.845 447.211 194.429 447.586C194.012 447.961 193.778 448.47 193.778 449C193.778 449.53 194.012 450.039 194.429 450.414C194.845 450.789 195.411 451 196 451C196.589 451 197.155 450.789 197.571 450.414C197.988 450.039 198.222 449.53 198.222 449C198.222 448.47 197.988 447.961 197.571 447.586C197.155 447.211 196.589 447 196 447Z" fill="#6D7D84"/>
</g>
<g filter="url(#filter2_i_348_277)">
<path d="M278 71.8C278 71.952 277.907 72.084 277.764 72.152L274.253 73.928C274.182 73.976 274.093 74 274 74C273.907 74 273.818 73.976 273.747 73.928L270.236 72.152C270.164 72.1183 270.105 72.0677 270.063 72.0056C270.022 71.9436 270 71.8724 270 71.8V68.2C270 68.048 270.093 67.916 270.236 67.848L273.747 66.072C273.818 66.024 273.907 66 274 66C274.093 66 274.182 66.024 274.253 66.072L277.764 67.848C277.907 67.916 278 68.048 278 68.2V71.8ZM274 68C273.411 68 272.845 68.2107 272.429 68.5858C272.012 68.9609 271.778 69.4696 271.778 70C271.778 70.5304 272.012 71.0391 272.429 71.4142C272.845 71.7893 273.411 72 274 72C274.589 72 275.155 71.7893 275.571 71.4142C275.988 71.0391 276.222 70.5304 276.222 70C276.222 69.4696 275.988 68.9609 275.571 68.5858C275.155 68.2107 274.589 68 274 68Z" fill="#6D7D84"/>
</g>
<g filter="url(#filter3_i_348_277)">
<path d="M123 71.8C123 71.952 122.907 72.084 122.764 72.152L119.253 73.928C119.182 73.976 119.093 74 119 74C118.907 74 118.818 73.976 118.747 73.928L115.236 72.152C115.164 72.1183 115.105 72.0677 115.063 72.0056C115.022 71.9436 115 71.8724 115 71.8V68.2C115 68.048 115.093 67.916 115.236 67.848L118.747 66.072C118.818 66.024 118.907 66 119 66C119.093 66 119.182 66.024 119.253 66.072L122.764 67.848C122.907 67.916 123 68.048 123 68.2V71.8ZM119 68C118.411 68 117.845 68.2107 117.429 68.5858C117.012 68.9609 116.778 69.4696 116.778 70C116.778 70.5304 117.012 71.0391 117.429 71.4142C117.845 71.7893 118.411 72 119 72C119.589 72 120.155 71.7893 120.571 71.4142C120.988 71.0391 121.222 70.5304 121.222 70C121.222 69.4696 120.988 68.9609 120.571 68.5858C120.155 68.2107 119.589 68 119 68Z" fill="#6D7D84"/>
</g>
<g filter="url(#filter4_i_348_277)">
<path d="M278 103.8C278 103.952 277.907 104.084 277.764 104.152L274.253 105.928C274.182 105.976 274.093 106 274 106C273.907 106 273.818 105.976 273.747 105.928L270.236 104.152C270.164 104.118 270.105 104.068 270.063 104.006C270.022 103.944 270 103.872 270 103.8V100.2C270 100.048 270.093 99.916 270.236 99.848L273.747 98.072C273.818 98.024 273.907 98 274 98C274.093 98 274.182 98.024 274.253 98.072L277.764 99.848C277.907 99.916 278 100.048 278 100.2V103.8ZM274 100C273.411 100 272.845 100.211 272.429 100.586C272.012 100.961 271.778 101.47 271.778 102C271.778 102.53 272.012 103.039 272.429 103.414C272.845 103.789 273.411 104 274 104C274.589 104 275.155 103.789 275.571 103.414C275.988 103.039 276.222 102.53 276.222 102C276.222 101.47 275.988 100.961 275.571 100.586C275.155 100.211 274.589 100 274 100Z" fill="#6D7D84"/>
</g>
<g filter="url(#filter5_i_348_277)">
<path d="M123 103.8C123 103.952 122.907 104.084 122.764 104.152L119.253 105.928C119.182 105.976 119.093 106 119 106C118.907 106 118.818 105.976 118.747 105.928L115.236 104.152C115.164 104.118 115.105 104.068 115.063 104.006C115.022 103.944 115 103.872 115 103.8V100.2C115 100.048 115.093 99.916 115.236 99.848L118.747 98.072C118.818 98.024 118.907 98 119 98C119.093 98 119.182 98.024 119.253 98.072L122.764 99.848C122.907 99.916 123 100.048 123 100.2V103.8ZM119 100C118.411 100 117.845 100.211 117.429 100.586C117.012 100.961 116.778 101.47 116.778 102C116.778 102.53 117.012 103.039 117.429 103.414C117.845 103.789 118.411 104 119 104C119.589 104 120.155 103.789 120.571 103.414C120.988 103.039 121.222 102.53 121.222 102C121.222 101.47 120.988 100.961 120.571 100.586C120.155 100.211 119.589 100 119 100Z" fill="#6D7D84"/>
</g>
<g filter="url(#filter6_i_348_277)">
<path d="M390 71.8C390 71.952 389.907 72.084 389.764 72.152L386.253 73.928C386.182 73.976 386.093 74 386 74C385.907 74 385.818 73.976 385.747 73.928L382.236 72.152C382.164 72.1183 382.105 72.0677 382.063 72.0056C382.022 71.9436 382 71.8724 382 71.8V68.2C382 68.048 382.093 67.916 382.236 67.848L385.747 66.072C385.818 66.024 385.907 66 386 66C386.093 66 386.182 66.024 386.253 66.072L389.764 67.848C389.907 67.916 390 68.048 390 68.2V71.8ZM386 68C385.411 68 384.845 68.2107 384.429 68.5858C384.012 68.9609 383.778 69.4696 383.778 70C383.778 70.5304 384.012 71.0391 384.429 71.4142C384.845 71.7893 385.411 72 386 72C386.589 72 387.155 71.7893 387.571 71.4142C387.988 71.0391 388.222 70.5304 388.222 70C388.222 69.4696 387.988 68.9609 387.571 68.5858C387.155 68.2107 386.589 68 386 68Z" fill="#6D7D84"/>
</g>
<g filter="url(#filter7_i_348_277)">
<path d="M8 71.8C8 71.952 7.90667 72.084 7.76444 72.152L4.25333 73.928C4.18222 73.976 4.09333 74 4 74C3.90667 74 3.81778 73.976 3.74667 73.928L0.235557 72.152C0.164304 72.1183 0.104674 72.0677 0.0631453 72.0056C0.0216169 71.9436 -0.000221853 71.8724 1.69922e-06 71.8V68.2C1.69922e-06 68.048 0.093335 67.916 0.235557 67.848L3.74667 66.072C3.81778 66.024 3.90667 66 4 66C4.09333 66 4.18222 66.024 4.25333 66.072L7.76444 67.848C7.90667 67.916 8 68.048 8 68.2V71.8ZM4 68C3.41063 68 2.8454 68.2107 2.42865 68.5858C2.01191 68.9609 1.77778 69.4696 1.77778 70C1.77778 70.5304 2.01191 71.0391 2.42865 71.4142C2.8454 71.7893 3.41063 72 4 72C4.58937 72 5.1546 71.7893 5.57135 71.4142C5.9881 71.0391 6.22222 70.5304 6.22222 70C6.22222 69.4696 5.9881 68.9609 5.57135 68.5858C5.1546 68.2107 4.58937 68 4 68Z" fill="#6D7D84"/>
</g>
<g filter="url(#filter8_i_348_277)">
<path d="M189 331.8C189 331.952 188.907 332.084 188.764 332.152L185.253 333.928C185.182 333.976 185.093 334 185 334C184.907 334 184.818 333.976 184.747 333.928L181.236 332.152C181.164 332.118 181.105 332.068 181.063 332.006C181.022 331.944 181 331.872 181 331.8V328.2C181 328.048 181.093 327.916 181.236 327.848L184.747 326.072C184.818 326.024 184.907 326 185 326C185.093 326 185.182 326.024 185.253 326.072L188.764 327.848C188.907 327.916 189 328.048 189 328.2V331.8ZM185 328C184.411 328 183.845 328.211 183.429 328.586C183.012 328.961 182.778 329.47 182.778 330C182.778 330.53 183.012 331.039 183.429 331.414C183.845 331.789 184.411 332 185 332C185.589 332 186.155 331.789 186.571 331.414C186.988 331.039 187.222 330.53 187.222 330C187.222 329.47 186.988 328.961 186.571 328.586C186.155 328.211 185.589 328 185 328Z" fill="#6D7D84"/>
</g>
<g filter="url(#filter9_i_348_277)">
<path d="M210 331.8C210 331.952 209.907 332.084 209.764 332.152L206.253 333.928C206.182 333.976 206.093 334 206 334C205.907 334 205.818 333.976 205.747 333.928L202.236 332.152C202.164 332.118 202.105 332.068 202.063 332.006C202.022 331.944 202 331.872 202 331.8V328.2C202 328.048 202.093 327.916 202.236 327.848L205.747 326.072C205.818 326.024 205.907 326 206 326C206.093 326 206.182 326.024 206.253 326.072L209.764 327.848C209.907 327.916 210 328.048 210 328.2V331.8ZM206 328C205.411 328 204.845 328.211 204.429 328.586C204.012 328.961 203.778 329.47 203.778 330C203.778 330.53 204.012 331.039 204.429 331.414C204.845 331.789 205.411 332 206 332C206.589 332 207.155 331.789 207.571 331.414C207.988 331.039 208.222 330.53 208.222 330C208.222 329.47 207.988 328.961 207.571 328.586C207.155 328.211 206.589 328 206 328Z" fill="#6D7D84"/>
</g>
<defs>
<filter id="filter0_d_348_277" x="459.992" y="348.5" width="2702.02" height="15" filterUnits="userSpaceOnUse" color-interpolation-filters="sRGB">
<feFlood flood-opacity="0" result="BackgroundImageFix"/>
<feColorMatrix in="SourceAlpha" type="matrix" values="0 0 0 0 0 0 0 0 0 0 0 0 0 0 0 0 0 0 127 0" result="hardAlpha"/>
<feOffset dy="4"/>
<feGaussianBlur stdDeviation="2"/>
<feComposite in2="hardAlpha" operator="out"/>
<feColorMatrix type="matrix" values="0 0 0 0 0 0 0 0 0 0 0 0 0 0 0 0 0 0 0.25 0"/>
<feBlend mode="normal" in2="BackgroundImageFix" result="effect1_dropShadow_348_277"/>
<feBlend mode="normal" in="SourceGraphic" in2="effect1_dropShadow_348_277" result="shape"/>
</filter>
<filter id="filter1_i_348_277" x="192" y="445" width="8" height="12" filterUnits="userSpaceOnUse" color-interpolation-filters="sRGB">
<feFlood flood-opacity="0" result="BackgroundImageFix"/>
<feBlend mode="normal" in="SourceGraphic" in2="BackgroundImageFix" result="shape"/>
<feColorMatrix in="SourceAlpha" type="matrix" values="0 0 0 0 0 0 0 0 0 0 0 0 0 0 0 0 0 0 127 0" result="hardAlpha"/>
<feOffset dy="4"/>
<feGaussianBlur stdDeviation="2"/>
<feComposite in2="hardAlpha" operator="arithmetic" k2="-1" k3="1"/>
<feColorMatrix type="matrix" values="0 0 0 0 0 0 0 0 0 0 0 0 0 0 0 0 0 0 0.25 0"/>
<feBlend mode="normal" in2="shape" result="effect1_innerShadow_348_277"/>
</filter>
<filter id="filter2_i_348_277" x="270" y="66" width="8" height="12" filterUnits="userSpaceOnUse" color-interpolation-filters="sRGB">
<feFlood flood-opacity="0" result="BackgroundImageFix"/>
<feBlend mode="normal" in="SourceGraphic" in2="BackgroundImageFix" result="shape"/>
<feColorMatrix in="SourceAlpha" type="matrix" values="0 0 0 0 0 0 0 0 0 0 0 0 0 0 0 0 0 0 127 0" result="hardAlpha"/>
<feOffset dy="4"/>
<feGaussianBlur stdDeviation="2"/>
<feComposite in2="hardAlpha" operator="arithmetic" k2="-1" k3="1"/>
<feColorMatrix type="matrix" values="0 0 0 0 0 0 0 0 0 0 0 0 0 0 0 0 0 0 0.25 0"/>
<feBlend mode="normal" in2="shape" result="effect1_innerShadow_348_277"/>
</filter>
<filter id="filter3_i_348_277" x="115" y="66" width="8" height="12" filterUnits="userSpaceOnUse" color-interpolation-filters="sRGB">
<feFlood flood-opacity="0" result="BackgroundImageFix"/>
<feBlend mode="normal" in="SourceGraphic" in2="BackgroundImageFix" result="shape"/>
<feColorMatrix in="SourceAlpha" type="matrix" values="0 0 0 0 0 0 0 0 0 0 0 0 0 0 0 0 0 0 127 0" result="hardAlpha"/>
<feOffset dy="4"/>
<feGaussianBlur stdDeviation="2"/>
<feComposite in2="hardAlpha" operator="arithmetic" k2="-1" k3="1"/>
<feColorMatrix type="matrix" values="0 0 0 0 0 0 0 0 0 0 0 0 0 0 0 0 0 0 0.25 0"/>
<feBlend mode="normal" in2="shape" result="effect1_innerShadow_348_277"/>
</filter>
<filter id="filter4_i_348_277" x="270" y="98" width="8" height="12" filterUnits="userSpaceOnUse" color-interpolation-filters="sRGB">
<feFlood flood-opacity="0" result="BackgroundImageFix"/>
<feBlend mode="normal" in="SourceGraphic" in2="BackgroundImageFix" result="shape"/>
<feColorMatrix in="SourceAlpha" type="matrix" values="0 0 0 0 0 0 0 0 0 0 0 0 0 0 0 0 0 0 127 0" result="hardAlpha"/>
<feOffset dy="4"/>
<feGaussianBlur stdDeviation="2"/>
<feComposite in2="hardAlpha" operator="arithmetic" k2="-1" k3="1"/>
<feColorMatrix type="matrix" values="0 0 0 0 0 0 0 0 0 0 0 0 0 0 0 0 0 0 0.25 0"/>
<feBlend mode="normal" in2="shape" result="effect1_innerShadow_348_277"/>
</filter>
<filter id="filter5_i_348_277" x="115" y="98" width="8" height="12" filterUnits="userSpaceOnUse" color-interpolation-filters="sRGB">
<feFlood flood-opacity="0" result="BackgroundImageFix"/>
<feBlend mode="normal" in="SourceGraphic" in2="BackgroundImageFix" result="shape"/>
<feColorMatrix in="SourceAlpha" type="matrix" values="0 0 0 0 0 0 0 0 0 0 0 0 0 0 0 0 0 0 127 0" result="hardAlpha"/>
<feOffset dy="4"/>
<feGaussianBlur stdDeviation="2"/>
<feComposite in2="hardAlpha" operator="arithmetic" k2="-1" k3="1"/>
<feColorMatrix type="matrix" values="0 0 0 0 0 0 0 0 0 0 0 0 0 0 0 0 0 0 0.25 0"/>
<feBlend mode="normal" in2="shape" result="effect1_innerShadow_348_277"/>
</filter>
<filter id="filter6_i_348_277" x="382" y="66" width="8" height="12" filterUnits="userSpaceOnUse" color-interpolation-filters="sRGB">
<feFlood flood-opacity="0" result="BackgroundImageFix"/>
<feBlend mode="normal" in="SourceGraphic" in2="BackgroundImageFix" result="shape"/>
<feColorMatrix in="SourceAlpha" type="matrix" values="0 0 0 0 0 0 0 0 0 0 0 0 0 0 0 0 0 0 127 0" result="hardAlpha"/>
<feOffset dy="4"/>
<feGaussianBlur stdDeviation="2"/>
<feComposite in2="hardAlpha" operator="arithmetic" k2="-1" k3="1"/>
<feColorMatrix type="matrix" values="0 0 0 0 0 0 0 0 0 0 0 0 0 0 0 0 0 0 0.25 0"/>
<feBlend mode="normal" in2="shape" result="effect1_innerShadow_348_277"/>
</filter>
<filter id="filter7_i_348_277" x="0" y="66" width="8" height="12" filterUnits="userSpaceOnUse" color-interpolation-filters="sRGB">
<feFlood flood-opacity="0" result="BackgroundImageFix"/>
<feBlend mode="normal" in="SourceGraphic" in2="BackgroundImageFix" result="shape"/>
<feColorMatrix in="SourceAlpha" type="matrix" values="0 0 0 0 0 0 0 0 0 0 0 0 0 0 0 0 0 0 127 0" result="hardAlpha"/>
<feOffset dy="4"/>
<feGaussianBlur stdDeviation="2"/>
<feComposite in2="hardAlpha" operator="arithmetic" k2="-1" k3="1"/>
<feColorMatrix type="matrix" values="0 0 0 0 0 0 0 0 0 0 0 0 0 0 0 0 0 0 0.25 0"/>
<feBlend mode="normal" in2="shape" result="effect1_innerShadow_348_277"/>
</filter>
<filter id="filter8_i_348_277" x="181" y="326" width="8" height="12" filterUnits="userSpaceOnUse" color-interpolation-filters="sRGB">
<feFlood flood-opacity="0" result="BackgroundImageFix"/>
<feBlend mode="normal" in="SourceGraphic" in2="BackgroundImageFix" result="shape"/>
<feColorMatrix in="SourceAlpha" type="matrix" values="0 0 0 0 0 0 0 0 0 0 0 0 0 0 0 0 0 0 127 0" result="hardAlpha"/>
<feOffset dy="4"/>
<feGaussianBlur stdDeviation="2"/>
<feComposite in2="hardAlpha" operator="arithmetic" k2="-1" k3="1"/>
<feColorMatrix type="matrix" values="0 0 0 0 0 0 0 0 0 0 0 0 0 0 0 0 0 0 0.25 0"/>
<feBlend mode="normal" in2="shape" result="effect1_innerShadow_348_277"/>
</filter>
<filter id="filter9_i_348_277" x="202" y="326" width="8" height="12" filterUnits="userSpaceOnUse" color-interpolation-filters="sRGB">
<feFlood flood-opacity="0" result="BackgroundImageFix"/>
<feBlend mode="normal" in="SourceGraphic" in2="BackgroundImageFix" result="shape"/>
<feColorMatrix in="SourceAlpha" type="matrix" values="0 0 0 0 0 0 0 0 0 0 0 0 0 0 0 0 0 0 127 0" result="hardAlpha"/>
<feOffset dy="4"/>
<feGaussianBlur stdDeviation="2"/>
<feComposite in2="hardAlpha" operator="arithmetic" k2="-1" k3="1"/>
<feColorMatrix type="matrix" values="0 0 0 0 0 0 0 0 0 0 0 0 0 0 0 0 0 0 0.25 0"/>
<feBlend mode="normal" in2="shape" result="effect1_innerShadow_348_277"/>
</filter>
</defs>
</svg>
