<svg width="521" height="601" viewBox="0 0 521 601" fill="none" xmlns="http://www.w3.org/2000/svg">
<path d="M202.976 475.761L269.556 253.982L202.976 248.764L311.926 107L269.556 215.715L333.543 204.408L202.976 475.761Z" fill="#FEB900" fill-opacity="0.28"/>
<path d="M271.741 601L75.8907 169.62H214.292V216.585H173.381L282.186 439.232L334.848 327.908L387.51 216.585H346.599V169.62H485L271.741 601Z" fill="#00202E" fill-opacity="0.5"/>
<path d="M261.296 574.039L55 169.62H193.401V216.585H152.49L261.296 439.232L366.619 216.585H325.708V169.62H464.109L261.296 574.039Z" fill="#00202E"/>
<path d="M192.53 475.761L259.111 253.982L192.53 248.764L301.48 107L259.111 215.715L323.097 204.408L192.53 475.761Z" fill="#FEB900"/>
<g filter="url(#filter0_d_343_141)">
<path d="M37.5 136.338C107.457 82.6769 167.947 61 259.5 61C351.053 61 411.543 82.6769 481.5 136.338" stroke="#00202E" stroke-width="5"/>
</g>
<g filter="url(#filter1_i_343_141)">
<path d="M265 557.8C265 557.952 264.907 558.084 264.764 558.152L261.253 559.928C261.182 559.976 261.093 560 261 560C260.907 560 260.818 559.976 260.747 559.928L257.236 558.152C257.164 558.118 257.105 558.068 257.063 558.006C257.022 557.944 257 557.872 257 557.8V554.2C257 554.048 257.093 553.916 257.236 553.848L260.747 552.072C260.818 552.024 260.907 552 261 552C261.093 552 261.182 552.024 261.253 552.072L264.764 553.848C264.907 553.916 265 554.048 265 554.2V557.8ZM261 554C260.411 554 259.845 554.211 259.429 554.586C259.012 554.961 258.778 555.47 258.778 556C258.778 556.53 259.012 557.039 259.429 557.414C259.845 557.789 260.411 558 261 558C261.589 558 262.155 557.789 262.571 557.414C262.988 557.039 263.222 556.53 263.222 556C263.222 555.47 262.988 554.961 262.571 554.586C262.155 554.211 261.589 554 261 554Z" fill="#6D7D84"/>
</g>
<g filter="url(#filter2_i_343_141)">
<path d="M343 178.8C343 178.952 342.907 179.084 342.764 179.152L339.253 180.928C339.182 180.976 339.093 181 339 181C338.907 181 338.818 180.976 338.747 180.928L335.236 179.152C335.164 179.118 335.105 179.068 335.063 179.006C335.022 178.944 335 178.872 335 178.8V175.2C335 175.048 335.093 174.916 335.236 174.848L338.747 173.072C338.818 173.024 338.907 173 339 173C339.093 173 339.182 173.024 339.253 173.072L342.764 174.848C342.907 174.916 343 175.048 343 175.2V178.8ZM339 175C338.411 175 337.845 175.211 337.429 175.586C337.012 175.961 336.778 176.47 336.778 177C336.778 177.53 337.012 178.039 337.429 178.414C337.845 178.789 338.411 179 339 179C339.589 179 340.155 178.789 340.571 178.414C340.988 178.039 341.222 177.53 341.222 177C341.222 176.47 340.988 175.961 340.571 175.586C340.155 175.211 339.589 175 339 175Z" fill="#6D7D84"/>
</g>
<g filter="url(#filter3_i_343_141)">
<path d="M188 178.8C188 178.952 187.907 179.084 187.764 179.152L184.253 180.928C184.182 180.976 184.093 181 184 181C183.907 181 183.818 180.976 183.747 180.928L180.236 179.152C180.164 179.118 180.105 179.068 180.063 179.006C180.022 178.944 180 178.872 180 178.8V175.2C180 175.048 180.093 174.916 180.236 174.848L183.747 173.072C183.818 173.024 183.907 173 184 173C184.093 173 184.182 173.024 184.253 173.072L187.764 174.848C187.907 174.916 188 175.048 188 175.2V178.8ZM184 175C183.411 175 182.845 175.211 182.429 175.586C182.012 175.961 181.778 176.47 181.778 177C181.778 177.53 182.012 178.039 182.429 178.414C182.845 178.789 183.411 179 184 179C184.589 179 185.155 178.789 185.571 178.414C185.988 178.039 186.222 177.53 186.222 177C186.222 176.47 185.988 175.961 185.571 175.586C185.155 175.211 184.589 175 184 175Z" fill="#6D7D84"/>
</g>
<g filter="url(#filter4_i_343_141)">
<path d="M343 210.8C343 210.952 342.907 211.084 342.764 211.152L339.253 212.928C339.182 212.976 339.093 213 339 213C338.907 213 338.818 212.976 338.747 212.928L335.236 211.152C335.164 211.118 335.105 211.068 335.063 211.006C335.022 210.944 335 210.872 335 210.8V207.2C335 207.048 335.093 206.916 335.236 206.848L338.747 205.072C338.818 205.024 338.907 205 339 205C339.093 205 339.182 205.024 339.253 205.072L342.764 206.848C342.907 206.916 343 207.048 343 207.2V210.8ZM339 207C338.411 207 337.845 207.211 337.429 207.586C337.012 207.961 336.778 208.47 336.778 209C336.778 209.53 337.012 210.039 337.429 210.414C337.845 210.789 338.411 211 339 211C339.589 211 340.155 210.789 340.571 210.414C340.988 210.039 341.222 209.53 341.222 209C341.222 208.47 340.988 207.961 340.571 207.586C340.155 207.211 339.589 207 339 207Z" fill="#6D7D84"/>
</g>
<g filter="url(#filter5_i_343_141)">
<path d="M188 210.8C188 210.952 187.907 211.084 187.764 211.152L184.253 212.928C184.182 212.976 184.093 213 184 213C183.907 213 183.818 212.976 183.747 212.928L180.236 211.152C180.164 211.118 180.105 211.068 180.063 211.006C180.022 210.944 180 210.872 180 210.8V207.2C180 207.048 180.093 206.916 180.236 206.848L183.747 205.072C183.818 205.024 183.907 205 184 205C184.093 205 184.182 205.024 184.253 205.072L187.764 206.848C187.907 206.916 188 207.048 188 207.2V210.8ZM184 207C183.411 207 182.845 207.211 182.429 207.586C182.012 207.961 181.778 208.47 181.778 209C181.778 209.53 182.012 210.039 182.429 210.414C182.845 210.789 183.411 211 184 211C184.589 211 185.155 210.789 185.571 210.414C185.988 210.039 186.222 209.53 186.222 209C186.222 208.47 185.988 207.961 185.571 207.586C185.155 207.211 184.589 207 184 207Z" fill="#6D7D84"/>
</g>
<g filter="url(#filter6_i_343_141)">
<path d="M455 178.8C455 178.952 454.907 179.084 454.764 179.152L451.253 180.928C451.182 180.976 451.093 181 451 181C450.907 181 450.818 180.976 450.747 180.928L447.236 179.152C447.164 179.118 447.105 179.068 447.063 179.006C447.022 178.944 447 178.872 447 178.8V175.2C447 175.048 447.093 174.916 447.236 174.848L450.747 173.072C450.818 173.024 450.907 173 451 173C451.093 173 451.182 173.024 451.253 173.072L454.764 174.848C454.907 174.916 455 175.048 455 175.2V178.8ZM451 175C450.411 175 449.845 175.211 449.429 175.586C449.012 175.961 448.778 176.47 448.778 177C448.778 177.53 449.012 178.039 449.429 178.414C449.845 178.789 450.411 179 451 179C451.589 179 452.155 178.789 452.571 178.414C452.988 178.039 453.222 177.53 453.222 177C453.222 176.47 452.988 175.961 452.571 175.586C452.155 175.211 451.589 175 451 175Z" fill="#6D7D84"/>
</g>
<g filter="url(#filter7_i_343_141)">
<path d="M73 178.8C73 178.952 72.9067 179.084 72.7644 179.152L69.2533 180.928C69.1822 180.976 69.0933 181 69 181C68.9067 181 68.8178 180.976 68.7467 180.928L65.2356 179.152C65.1643 179.118 65.1047 179.068 65.0631 179.006C65.0216 178.944 64.9998 178.872 65 178.8V175.2C65 175.048 65.0933 174.916 65.2356 174.848L68.7467 173.072C68.8178 173.024 68.9067 173 69 173C69.0933 173 69.1822 173.024 69.2533 173.072L72.7644 174.848C72.9067 174.916 73 175.048 73 175.2V178.8ZM69 175C68.4106 175 67.8454 175.211 67.4287 175.586C67.0119 175.961 66.7778 176.47 66.7778 177C66.7778 177.53 67.0119 178.039 67.4287 178.414C67.8454 178.789 68.4106 179 69 179C69.5894 179 70.1546 178.789 70.5713 178.414C70.9881 178.039 71.2222 177.53 71.2222 177C71.2222 176.47 70.9881 175.961 70.5713 175.586C70.1546 175.211 69.5894 175 69 175Z" fill="#6D7D84"/>
</g>
<g filter="url(#filter8_i_343_141)">
<path d="M254 438.8C254 438.952 253.907 439.084 253.764 439.152L250.253 440.928C250.182 440.976 250.093 441 250 441C249.907 441 249.818 440.976 249.747 440.928L246.236 439.152C246.164 439.118 246.105 439.068 246.063 439.006C246.022 438.944 246 438.872 246 438.8V435.2C246 435.048 246.093 434.916 246.236 434.848L249.747 433.072C249.818 433.024 249.907 433 250 433C250.093 433 250.182 433.024 250.253 433.072L253.764 434.848C253.907 434.916 254 435.048 254 435.2V438.8ZM250 435C249.411 435 248.845 435.211 248.429 435.586C248.012 435.961 247.778 436.47 247.778 437C247.778 437.53 248.012 438.039 248.429 438.414C248.845 438.789 249.411 439 250 439C250.589 439 251.155 438.789 251.571 438.414C251.988 438.039 252.222 437.53 252.222 437C252.222 436.47 251.988 435.961 251.571 435.586C251.155 435.211 250.589 435 250 435Z" fill="#6D7D84"/>
</g>
<g filter="url(#filter9_i_343_141)">
<path d="M275 438.8C275 438.952 274.907 439.084 274.764 439.152L271.253 440.928C271.182 440.976 271.093 441 271 441C270.907 441 270.818 440.976 270.747 440.928L267.236 439.152C267.164 439.118 267.105 439.068 267.063 439.006C267.022 438.944 267 438.872 267 438.8V435.2C267 435.048 267.093 434.916 267.236 434.848L270.747 433.072C270.818 433.024 270.907 433 271 433C271.093 433 271.182 433.024 271.253 433.072L274.764 434.848C274.907 434.916 275 435.048 275 435.2V438.8ZM271 435C270.411 435 269.845 435.211 269.429 435.586C269.012 435.961 268.778 436.47 268.778 437C268.778 437.53 269.012 438.039 269.429 438.414C269.845 438.789 270.411 439 271 439C271.589 439 272.155 438.789 272.571 438.414C272.988 438.039 273.222 437.53 273.222 437C273.222 436.47 272.988 435.961 272.571 435.586C272.155 435.211 271.589 435 271 435Z" fill="#6D7D84"/>
</g>
<path d="M26.4625 99.0858L28.9969 97.2244C29.9443 98.649 30.5376 100.044 30.7769 101.409C31.0187 102.758 30.8668 104.043 30.3214 105.263C29.7851 106.477 28.8191 107.597 27.4234 108.622C26.4225 109.357 25.373 109.824 24.275 110.023C23.1769 110.221 22.0688 110.166 20.9508 109.856C19.8352 109.53 18.7448 108.96 17.6796 108.145C16.6145 107.33 15.6064 106.275 14.6555 104.98L11.9341 101.275C10.9898 99.9896 10.2882 98.7167 9.82908 97.4565C9.37916 96.1896 9.17368 94.9764 9.21262 93.8169C9.25399 92.6415 9.54748 91.5495 10.0931 90.5409C10.6479 89.5255 11.4578 88.6267 12.523 87.8443C13.8269 86.8866 15.121 86.339 16.4053 86.2014C17.6921 86.0479 18.9464 86.2929 20.1682 86.9364C21.3925 87.5639 22.5616 88.5782 23.6755 89.9794L21.1412 91.8409C20.3013 90.8321 19.5054 90.0949 18.7535 89.6294C17.9949 89.1546 17.2392 88.9534 16.4865 89.0256C15.7362 89.0819 14.9479 89.4136 14.1214 90.0206C13.3868 90.5601 12.8566 91.1758 12.5306 91.8676C12.2139 92.5526 12.0833 93.2987 12.1391 94.1059C12.1972 94.8972 12.4224 95.7426 12.8144 96.6421C13.2089 97.5257 13.7535 98.4403 14.4482 99.3861L17.1898 103.119C17.8373 104 18.5098 104.772 19.2073 105.433C19.914 106.087 20.6359 106.589 21.373 106.938C22.1126 107.271 22.8575 107.409 23.6078 107.353C24.358 107.297 25.1005 106.999 25.8351 106.459C26.7625 105.778 27.3858 105.087 27.705 104.386C28.0242 103.685 28.0696 102.91 27.8411 102.06C27.6218 101.203 27.1623 100.212 26.4625 99.0858Z" fill="#00202E"/>
<path d="M47.0487 77.3994L49.3747 81.0442C50.3186 82.5233 50.9858 83.9288 51.3763 85.2609C51.7704 86.5772 51.8991 87.8061 51.7625 88.9475C51.6259 90.0889 51.2449 91.1227 50.6196 92.0488C49.9942 92.975 49.1389 93.7844 48.0536 94.477C47.0068 95.145 45.9316 95.5676 44.8282 95.7447C43.7248 95.9217 42.6219 95.8349 41.5196 95.4841C40.4173 95.1334 39.3377 94.5113 38.281 93.6179C37.2278 92.7087 36.2292 91.5146 35.2853 90.0355L32.9594 86.3907C32.0155 84.9117 31.3561 83.5079 30.9813 82.1793C30.6004 80.8411 30.483 79.5982 30.6292 78.4507C30.7754 77.3032 31.1612 76.2663 31.7865 75.3401C32.4057 74.4044 33.2388 73.6024 34.2856 72.9344C35.3709 72.2418 36.4683 71.8118 37.5778 71.6443C38.6909 71.4611 39.7889 71.5511 40.8721 71.9141C41.9648 72.2709 43.033 72.907 44.0766 73.8223C45.1141 74.728 46.1048 75.9204 47.0487 77.3994ZM46.7527 82.7174L44.4084 79.0438C43.6729 77.8913 42.9456 76.9634 42.2264 76.26C41.5011 75.547 40.7826 75.0459 40.0709 74.7567C39.3593 74.4675 38.65 74.3728 37.9432 74.4724C37.2303 74.5625 36.5137 74.8373 35.7934 75.297C35.1115 75.7322 34.5796 76.2541 34.1976 76.8628C33.8191 77.4557 33.6063 78.1389 33.5593 78.9122C33.5122 79.6856 33.6496 80.5575 33.9716 81.5279C34.297 82.4826 34.8274 83.5362 35.5629 84.6887L37.9073 88.3623C38.6489 89.5244 39.3872 90.4589 40.1221 91.1657C40.8605 91.8569 41.5934 92.3488 42.3208 92.6414C43.0516 92.9184 43.7735 93.0118 44.4864 92.9218C45.1932 92.8221 45.8828 92.5578 46.5551 92.1288C47.2754 91.6691 47.8296 91.1397 48.2177 90.5406C48.6092 89.9258 48.8189 89.2379 48.8468 88.4767C48.8781 87.6999 48.7215 86.8402 48.3769 85.8978C48.0357 84.9397 47.4944 83.8795 46.7527 82.7174Z" fill="#00202E"/>
<path d="M66.3611 54.6595L78.2906 76.4963L75.516 78.012L57.5712 65.9463L66.7723 82.7887L64.0127 84.2963L52.0833 62.4596L54.8429 60.952L72.8572 73.0382L63.6315 56.1507L66.3611 54.6595Z" fill="#00202E"/>
<path d="M94.9122 61.4877C94.6669 60.9609 94.3885 60.525 94.077 60.1799C93.7607 59.8245 93.3707 59.5536 92.907 59.3674C92.4432 59.1811 91.8627 59.0681 91.1655 59.0283C90.4683 58.9884 89.619 59.0132 88.6174 59.1025C87.534 59.2048 86.5215 59.2301 85.5799 59.1783C84.6336 59.1163 83.7692 58.9469 82.9869 58.6702C82.2149 58.3887 81.5256 57.9745 80.919 57.4275C80.3124 56.8804 79.8047 56.168 79.3959 55.29C78.9871 54.4121 78.7593 53.5316 78.7126 52.6485C78.6762 51.7606 78.8094 50.913 79.1123 50.1059C79.4207 49.2837 79.9004 48.5325 80.5514 47.8523C81.2024 47.1722 82.0185 46.6037 82.9997 46.1468C84.4664 45.4639 85.8521 45.2145 87.1569 45.3988C88.4673 45.5678 89.6236 46.0537 90.6257 46.8564C91.623 47.6488 92.3958 48.6337 92.9441 49.8112L90.0934 51.1385C89.6991 50.2916 89.211 49.6077 88.6291 49.0868C88.0528 48.5509 87.3889 48.2316 86.6373 48.1291C85.8913 48.0114 85.0587 48.1666 84.1395 48.5946C83.3132 48.9794 82.7061 49.4569 82.3181 50.0271C81.9404 50.5926 81.7499 51.2091 81.7466 51.8768C81.7536 52.5396 81.9206 53.2222 82.2476 53.9245C82.4688 54.3996 82.7534 54.795 83.1014 55.1105C83.4446 55.4157 83.8636 55.6542 84.3583 55.826C84.8634 55.993 85.4391 56.0957 86.0853 56.1341C86.7419 56.1677 87.4867 56.1477 88.3196 56.0741C89.5931 55.921 90.7257 55.8838 91.7174 55.9624C92.7092 56.0411 93.5828 56.2438 94.3383 56.5707C95.0889 56.8873 95.7414 57.3438 96.2956 57.9404C96.8554 58.5218 97.3397 59.2514 97.7484 60.1293C98.1764 61.0486 98.4087 61.9522 98.4451 62.8401C98.4918 63.7232 98.3486 64.5628 98.0155 65.3589C97.6823 66.1549 97.1751 66.8875 96.4938 67.5566C95.8077 68.2154 94.9534 68.7829 93.9309 69.259C93.0427 69.6726 92.1026 69.9344 91.1106 70.0443C90.1291 70.1495 89.1576 70.074 88.1963 69.8178C87.235 69.5616 86.3505 69.1062 85.5431 68.4517C84.7308 67.7868 84.0625 66.8914 83.5383 65.7656L86.389 64.4383C86.7497 65.2129 87.1735 65.8262 87.6604 66.2781C88.1425 66.7197 88.6691 67.0275 89.2402 67.2015C89.8114 67.3754 90.396 67.4299 90.9942 67.3651C91.5979 67.285 92.1993 67.1056 92.7983 66.8266C93.6246 66.4419 94.2493 65.9751 94.6724 65.4262C95.1058 64.8725 95.3369 64.2622 95.3657 63.5953C95.4048 62.9235 95.2536 62.221 94.9122 61.4877Z" fill="#00202E"/>
<path d="M107.722 35.934L116.843 59.0847L113.95 60.2249L104.828 37.0741L107.722 35.934ZM113.812 33.5347L114.802 36.0469L99.7443 41.9794L98.7545 39.4672L113.812 33.5347Z" fill="#00202E"/>
<path d="M123.967 29.9145L130.581 27.7605C132.119 27.2594 133.496 27.1104 134.713 27.3133C135.94 27.5127 136.992 28.0568 137.869 28.9456C138.752 29.82 139.445 31.0263 139.946 32.5646C140.299 33.648 140.443 34.6974 140.378 35.713C140.31 36.7177 140.037 37.6454 139.559 38.496C139.078 39.3358 138.399 40.0661 137.523 40.687L136.821 41.2929L130.923 43.214L130.059 40.6734L134.301 39.2921C135.211 38.9957 135.905 38.5537 136.385 37.9661C136.861 37.3677 137.141 36.6833 137.226 35.9129C137.311 35.1424 137.221 34.3509 136.956 33.5385C136.66 32.6285 136.265 31.8763 135.772 31.2821C135.279 30.6878 134.674 30.3035 133.958 30.1292C133.25 29.9406 132.403 30.0068 131.417 30.3279L127.793 31.5081L134.663 52.6002L131.673 53.574L123.967 29.9145ZM143.031 49.8746L134.826 40.6846L137.924 39.6575L146.169 48.637L146.233 48.832L143.031 49.8746Z" fill="#00202E"/>
<path d="M159.476 19.472L162.52 18.6844L166.907 35.6432C167.375 37.4521 167.403 38.9925 166.99 40.2642C166.578 41.536 165.868 42.567 164.86 43.3573C163.861 44.1336 162.71 44.6902 161.409 45.0269C160.019 45.3864 158.704 45.4676 157.465 45.2705C156.222 45.0624 155.129 44.4979 154.184 43.5771C153.251 42.6535 152.551 41.2872 152.083 39.4783L147.695 22.5195L150.723 21.7362L155.11 38.695C155.436 39.9524 155.866 40.8884 156.402 41.5031C156.948 42.1148 157.584 42.4799 158.309 42.5983C159.045 42.7139 159.854 42.6576 160.737 42.4293C161.63 42.1982 162.365 41.855 162.942 41.3999C163.529 40.9419 163.908 40.3143 164.079 39.517C164.26 38.717 164.188 37.6882 163.863 36.4308L159.476 19.472Z" fill="#00202E"/>
<path d="M191.086 35.4137L191.6 38.0471L180.999 40.1155L180.485 37.4821L191.086 35.4137ZM176.787 15.5853L181.552 40.0075L178.466 40.6097L173.701 16.1875L176.787 15.5853ZM187.457 24.4033L187.971 27.0367L178.796 28.8269L178.282 26.1935L187.457 24.4033ZM186.667 13.6576L187.184 16.3078L176.751 18.3435L176.233 15.6933L186.667 13.6576Z" fill="#00202E"/>
<path d="M213.332 32.1309L213.696 34.7892L203.469 36.1889L203.105 33.5306L213.332 32.1309ZM200.653 11.4595L204.028 36.1124L200.912 36.5388L197.538 11.8859L200.653 11.4595Z" fill="#00202E"/>
<path d="M235.685 30.1174L235.898 32.792L225.131 33.6481L224.919 30.9735L235.685 30.1174ZM223.721 8.7989L225.694 33.6034L222.559 33.8527L220.587 9.04814L223.721 8.7989ZM233.326 18.7672L233.538 21.4419L224.22 22.1829L224.007 19.5082L233.326 18.7672ZM233.756 8.00106L233.97 10.6928L223.373 11.5353L223.159 8.8436L233.756 8.00106Z" fill="#00202E"/>
<path d="M257.615 24.175L260.759 24.1156C260.712 25.8258 260.392 27.3075 259.801 28.5608C259.22 29.8024 258.355 30.7646 257.206 31.4472C256.068 32.1296 254.633 32.4872 252.902 32.5199C251.66 32.5434 250.533 32.3197 249.522 31.8488C248.51 31.3779 247.637 30.6936 246.902 29.7959C246.178 28.8865 245.616 27.7918 245.216 26.5117C244.816 25.2316 244.6 23.7885 244.57 22.1823L244.483 17.586C244.453 15.9912 244.614 14.5467 244.965 13.2523C245.328 11.9578 245.86 10.8481 246.56 9.92328C247.272 8.98682 248.142 8.26389 249.169 7.75448C250.208 7.24486 251.388 6.97756 252.709 6.9526C254.327 6.92204 255.7 7.22086 256.828 7.84906C257.968 8.46566 258.852 9.38908 259.479 10.6193C260.117 11.8379 260.487 13.3408 260.589 15.1279L257.446 15.1873C257.341 13.8789 257.116 12.8177 256.77 12.0037C256.424 11.1784 255.923 10.5782 255.266 10.2032C254.621 9.81658 253.785 9.63294 252.76 9.65231C251.849 9.66953 251.061 9.86675 250.395 10.244C249.742 10.621 249.205 11.1553 248.785 11.8469C248.376 12.527 248.072 13.3475 247.874 14.3084C247.687 15.2578 247.604 16.3191 247.626 17.4924L247.714 22.1229C247.735 23.2165 247.839 24.2344 248.028 25.1766C248.228 26.1186 248.529 26.9448 248.93 27.6551C249.342 28.3539 249.87 28.8965 250.516 29.2832C251.161 29.6698 251.94 29.8545 252.851 29.8373C254.001 29.8156 254.909 29.6104 255.574 29.2218C256.239 28.8332 256.723 28.2258 257.027 27.3996C257.342 26.5732 257.538 25.4983 257.615 24.175Z" fill="#00202E"/>
<path d="M279.16 7.66458L278.095 32.5246L274.987 32.3914L276.053 7.53143L279.16 7.66458ZM285.7 7.94478L285.584 10.6425L269.415 9.94969L269.53 7.25197L285.7 7.94478Z" fill="#00202E"/>
<path d="M296.45 8.75998L303.368 9.47703C304.978 9.64382 306.297 10.0669 307.326 10.7463C308.367 11.4268 309.107 12.3512 309.547 13.5193C310 14.6773 310.143 16.0609 309.976 17.6701C309.859 18.8034 309.564 19.8209 309.093 20.7228C308.622 21.6133 307.996 22.3502 307.214 22.9335C306.433 23.5054 305.516 23.8972 304.463 24.1088L303.577 24.3777L297.406 23.7382L297.649 21.0658L302.085 21.5257C303.037 21.6243 303.852 21.5025 304.529 21.1603C305.207 20.8068 305.741 20.2952 306.131 19.6255C306.521 18.9557 306.76 18.1959 306.848 17.346C306.947 16.394 306.892 15.5464 306.682 14.8031C306.473 14.0598 306.077 13.4632 305.493 13.0133C304.922 12.5532 304.121 12.2697 303.09 12.1628L299.299 11.77L297.012 33.8344L293.885 33.5102L296.45 8.75998ZM305.767 34.7417L302 23.0116L305.249 23.3311L309.137 34.8848L309.116 35.0888L305.767 34.7417Z" fill="#00202E"/>
<path d="M324.53 12.2221L320.784 36.8213L317.675 36.3479L321.422 11.7487L324.53 12.2221Z" fill="#00202E"/>
<path d="M344.987 33.2488L348.069 33.8743C347.651 35.5333 347.017 36.9101 346.167 38.0048C345.33 39.0905 344.277 39.8416 343.007 40.2581C341.748 40.6768 340.269 40.7139 338.572 40.3694C337.355 40.1224 336.304 39.6591 335.419 38.9796C334.534 38.3 333.83 37.4422 333.308 36.4062C332.799 35.3613 332.489 34.1706 332.377 32.8341C332.264 31.4976 332.368 30.0422 332.687 28.4678L333.602 23.9625C333.919 22.3993 334.39 21.0243 335.014 19.8374C335.65 18.6527 336.41 17.6852 337.295 16.9347C338.193 16.1753 339.199 15.6587 340.313 15.3848C341.437 15.1132 342.647 15.1088 343.943 15.3717C345.528 15.6935 346.803 16.2837 347.768 17.1422C348.747 17.9919 349.408 19.0853 349.753 20.4224C350.111 21.7507 350.146 23.2981 349.857 25.0647L346.776 24.4392C346.958 23.1393 346.969 22.0545 346.808 21.1849C346.65 20.3041 346.291 19.6093 345.732 19.1005C345.186 18.5828 344.41 18.2219 343.405 18.0179C342.512 17.8366 341.7 17.8578 340.969 18.0814C340.248 18.3072 339.608 18.7121 339.048 19.2959C338.501 19.8708 338.027 20.6057 337.624 21.5005C337.235 22.3865 336.924 23.4045 336.69 24.5545L335.769 29.0933C335.551 30.1652 335.432 31.1815 335.412 32.1423C335.402 33.1053 335.516 33.977 335.753 34.7575C336.003 35.5291 336.401 36.1737 336.947 36.6914C337.493 37.2091 338.213 37.5586 339.106 37.7399C340.234 37.9688 341.164 37.9659 341.898 37.7312C342.631 37.4964 343.236 37.0088 343.712 36.2683C344.199 35.5301 344.624 34.5236 344.987 33.2488Z" fill="#00202E"/>
<path d="M379.186 42.9446L384.303 26.0846L387.296 26.993L382.178 43.853C381.702 45.4229 381.027 46.6647 380.154 47.5786C379.282 48.4924 378.274 49.0855 377.132 49.3579C376.004 49.6227 374.813 49.5648 373.559 49.1842C372.327 48.8103 371.302 48.2253 370.484 47.4293C369.666 46.6332 369.134 45.6384 368.889 44.4449C368.655 43.2546 368.775 41.88 369.248 40.321L372.257 41.2344C371.953 42.2374 371.85 43.1051 371.949 43.8377C372.059 44.5736 372.324 45.1719 372.744 45.6327C373.164 46.0935 373.695 46.4215 374.338 46.6168C374.992 46.8153 375.629 46.818 376.247 46.6246C376.868 46.4204 377.432 46.0141 377.938 45.4057C378.459 44.7898 378.875 43.9694 379.186 42.9446Z" fill="#00202E"/>
<path d="M397.361 52.8033L410.286 35.0783L413.492 36.2628L397.623 56.9265L395.363 56.0914L397.361 52.8033ZM399.642 31.1456L397.89 52.9987L397.318 56.814L395.058 55.9789L396.436 29.9611L399.642 31.1456Z" fill="#00202E"/>
<path d="M438.275 71.6814L437.112 74.0993L427.81 69.6247L428.973 67.2068L438.275 71.6814ZM439.105 47.4458L428.318 69.8691L425.485 68.506L436.271 46.0827L439.105 47.4458Z" fill="#00202E"/>
<path d="M464.083 60.3162L452.016 82.0773L449.296 80.569L461.363 58.8078L464.083 60.3162ZM469.807 63.4903L468.498 65.8518L454.344 58.0034L455.653 55.642L469.807 63.4903Z" fill="#00202E"/>
<path d="M470.441 93.0325L466.868 90.7525L468.34 88.5091L471.884 90.7707C473.142 91.5736 474.318 91.9863 475.412 92.0086C476.512 92.0214 477.553 91.6719 478.534 90.9601C479.522 90.2387 480.466 89.1721 481.367 87.7603L483.656 84.1731C484.367 83.0591 484.875 82.0312 485.178 81.0896C485.482 80.148 485.588 79.2831 485.496 78.4948C485.404 77.7065 485.116 76.9821 484.632 76.3218C484.154 75.6518 483.483 75.041 482.619 74.4894L478.729 72.0072L480.182 69.731L484.071 72.2132C485.253 72.9671 486.199 73.8347 486.911 74.8161C487.629 75.7878 488.093 76.861 488.303 78.0357C488.519 79.2008 488.458 80.4393 488.121 81.7514C487.793 83.0696 487.173 84.4442 486.26 85.8752L483.989 89.4335C483.076 90.8646 482.09 92.0063 481.033 92.8586C479.985 93.7171 478.882 94.2907 477.725 94.5793C476.568 94.8679 475.375 94.8839 474.147 94.6272C472.934 94.367 471.699 93.8354 470.441 93.0325ZM481.723 70.7147L468.337 91.6902L465.687 89.9986L479.072 69.0231L481.723 70.7147Z" fill="#00202E"/>
<path d="M506.323 90.0667L487.434 104.342L484.843 102.443L506.013 87.1067L507.64 88.2984L506.323 90.0667ZM497.361 111.613L505.276 89.2992L506.551 87.5005L508.191 88.7024L499.953 113.512L497.361 111.613ZM502.804 104.182L501.209 106.361L491.53 99.271L493.126 97.0927L502.804 104.182Z" fill="#00202E"/>
<defs>
<filter id="filter0_d_343_141" x="31.9784" y="58.5" width="455.043" height="87.8213" filterUnits="userSpaceOnUse" color-interpolation-filters="sRGB">
<feFlood flood-opacity="0" result="BackgroundImageFix"/>
<feColorMatrix in="SourceAlpha" type="matrix" values="0 0 0 0 0 0 0 0 0 0 0 0 0 0 0 0 0 0 127 0" result="hardAlpha"/>
<feOffset dy="4"/>
<feGaussianBlur stdDeviation="2"/>
<feComposite in2="hardAlpha" operator="out"/>
<feColorMatrix type="matrix" values="0 0 0 0 0 0 0 0 0 0 0 0 0 0 0 0 0 0 0.25 0"/>
<feBlend mode="normal" in2="BackgroundImageFix" result="effect1_dropShadow_343_141"/>
<feBlend mode="normal" in="SourceGraphic" in2="effect1_dropShadow_343_141" result="shape"/>
</filter>
<filter id="filter1_i_343_141" x="257" y="552" width="8" height="12" filterUnits="userSpaceOnUse" color-interpolation-filters="sRGB">
<feFlood flood-opacity="0" result="BackgroundImageFix"/>
<feBlend mode="normal" in="SourceGraphic" in2="BackgroundImageFix" result="shape"/>
<feColorMatrix in="SourceAlpha" type="matrix" values="0 0 0 0 0 0 0 0 0 0 0 0 0 0 0 0 0 0 127 0" result="hardAlpha"/>
<feOffset dy="4"/>
<feGaussianBlur stdDeviation="2"/>
<feComposite in2="hardAlpha" operator="arithmetic" k2="-1" k3="1"/>
<feColorMatrix type="matrix" values="0 0 0 0 0 0 0 0 0 0 0 0 0 0 0 0 0 0 0.25 0"/>
<feBlend mode="normal" in2="shape" result="effect1_innerShadow_343_141"/>
</filter>
<filter id="filter2_i_343_141" x="335" y="173" width="8" height="12" filterUnits="userSpaceOnUse" color-interpolation-filters="sRGB">
<feFlood flood-opacity="0" result="BackgroundImageFix"/>
<feBlend mode="normal" in="SourceGraphic" in2="BackgroundImageFix" result="shape"/>
<feColorMatrix in="SourceAlpha" type="matrix" values="0 0 0 0 0 0 0 0 0 0 0 0 0 0 0 0 0 0 127 0" result="hardAlpha"/>
<feOffset dy="4"/>
<feGaussianBlur stdDeviation="2"/>
<feComposite in2="hardAlpha" operator="arithmetic" k2="-1" k3="1"/>
<feColorMatrix type="matrix" values="0 0 0 0 0 0 0 0 0 0 0 0 0 0 0 0 0 0 0.25 0"/>
<feBlend mode="normal" in2="shape" result="effect1_innerShadow_343_141"/>
</filter>
<filter id="filter3_i_343_141" x="180" y="173" width="8" height="12" filterUnits="userSpaceOnUse" color-interpolation-filters="sRGB">
<feFlood flood-opacity="0" result="BackgroundImageFix"/>
<feBlend mode="normal" in="SourceGraphic" in2="BackgroundImageFix" result="shape"/>
<feColorMatrix in="SourceAlpha" type="matrix" values="0 0 0 0 0 0 0 0 0 0 0 0 0 0 0 0 0 0 127 0" result="hardAlpha"/>
<feOffset dy="4"/>
<feGaussianBlur stdDeviation="2"/>
<feComposite in2="hardAlpha" operator="arithmetic" k2="-1" k3="1"/>
<feColorMatrix type="matrix" values="0 0 0 0 0 0 0 0 0 0 0 0 0 0 0 0 0 0 0.25 0"/>
<feBlend mode="normal" in2="shape" result="effect1_innerShadow_343_141"/>
</filter>
<filter id="filter4_i_343_141" x="335" y="205" width="8" height="12" filterUnits="userSpaceOnUse" color-interpolation-filters="sRGB">
<feFlood flood-opacity="0" result="BackgroundImageFix"/>
<feBlend mode="normal" in="SourceGraphic" in2="BackgroundImageFix" result="shape"/>
<feColorMatrix in="SourceAlpha" type="matrix" values="0 0 0 0 0 0 0 0 0 0 0 0 0 0 0 0 0 0 127 0" result="hardAlpha"/>
<feOffset dy="4"/>
<feGaussianBlur stdDeviation="2"/>
<feComposite in2="hardAlpha" operator="arithmetic" k2="-1" k3="1"/>
<feColorMatrix type="matrix" values="0 0 0 0 0 0 0 0 0 0 0 0 0 0 0 0 0 0 0.25 0"/>
<feBlend mode="normal" in2="shape" result="effect1_innerShadow_343_141"/>
</filter>
<filter id="filter5_i_343_141" x="180" y="205" width="8" height="12" filterUnits="userSpaceOnUse" color-interpolation-filters="sRGB">
<feFlood flood-opacity="0" result="BackgroundImageFix"/>
<feBlend mode="normal" in="SourceGraphic" in2="BackgroundImageFix" result="shape"/>
<feColorMatrix in="SourceAlpha" type="matrix" values="0 0 0 0 0 0 0 0 0 0 0 0 0 0 0 0 0 0 127 0" result="hardAlpha"/>
<feOffset dy="4"/>
<feGaussianBlur stdDeviation="2"/>
<feComposite in2="hardAlpha" operator="arithmetic" k2="-1" k3="1"/>
<feColorMatrix type="matrix" values="0 0 0 0 0 0 0 0 0 0 0 0 0 0 0 0 0 0 0.25 0"/>
<feBlend mode="normal" in2="shape" result="effect1_innerShadow_343_141"/>
</filter>
<filter id="filter6_i_343_141" x="447" y="173" width="8" height="12" filterUnits="userSpaceOnUse" color-interpolation-filters="sRGB">
<feFlood flood-opacity="0" result="BackgroundImageFix"/>
<feBlend mode="normal" in="SourceGraphic" in2="BackgroundImageFix" result="shape"/>
<feColorMatrix in="SourceAlpha" type="matrix" values="0 0 0 0 0 0 0 0 0 0 0 0 0 0 0 0 0 0 127 0" result="hardAlpha"/>
<feOffset dy="4"/>
<feGaussianBlur stdDeviation="2"/>
<feComposite in2="hardAlpha" operator="arithmetic" k2="-1" k3="1"/>
<feColorMatrix type="matrix" values="0 0 0 0 0 0 0 0 0 0 0 0 0 0 0 0 0 0 0.25 0"/>
<feBlend mode="normal" in2="shape" result="effect1_innerShadow_343_141"/>
</filter>
<filter id="filter7_i_343_141" x="65" y="173" width="8" height="12" filterUnits="userSpaceOnUse" color-interpolation-filters="sRGB">
<feFlood flood-opacity="0" result="BackgroundImageFix"/>
<feBlend mode="normal" in="SourceGraphic" in2="BackgroundImageFix" result="shape"/>
<feColorMatrix in="SourceAlpha" type="matrix" values="0 0 0 0 0 0 0 0 0 0 0 0 0 0 0 0 0 0 127 0" result="hardAlpha"/>
<feOffset dy="4"/>
<feGaussianBlur stdDeviation="2"/>
<feComposite in2="hardAlpha" operator="arithmetic" k2="-1" k3="1"/>
<feColorMatrix type="matrix" values="0 0 0 0 0 0 0 0 0 0 0 0 0 0 0 0 0 0 0.25 0"/>
<feBlend mode="normal" in2="shape" result="effect1_innerShadow_343_141"/>
</filter>
<filter id="filter8_i_343_141" x="246" y="433" width="8" height="12" filterUnits="userSpaceOnUse" color-interpolation-filters="sRGB">
<feFlood flood-opacity="0" result="BackgroundImageFix"/>
<feBlend mode="normal" in="SourceGraphic" in2="BackgroundImageFix" result="shape"/>
<feColorMatrix in="SourceAlpha" type="matrix" values="0 0 0 0 0 0 0 0 0 0 0 0 0 0 0 0 0 0 127 0" result="hardAlpha"/>
<feOffset dy="4"/>
<feGaussianBlur stdDeviation="2"/>
<feComposite in2="hardAlpha" operator="arithmetic" k2="-1" k3="1"/>
<feColorMatrix type="matrix" values="0 0 0 0 0 0 0 0 0 0 0 0 0 0 0 0 0 0 0.25 0"/>
<feBlend mode="normal" in2="shape" result="effect1_innerShadow_343_141"/>
</filter>
<filter id="filter9_i_343_141" x="267" y="433" width="8" height="12" filterUnits="userSpaceOnUse" color-interpolation-filters="sRGB">
<feFlood flood-opacity="0" result="BackgroundImageFix"/>
<feBlend mode="normal" in="SourceGraphic" in2="BackgroundImageFix" result="shape"/>
<feColorMatrix in="SourceAlpha" type="matrix" values="0 0 0 0 0 0 0 0 0 0 0 0 0 0 0 0 0 0 127 0" result="hardAlpha"/>
<feOffset dy="4"/>
<feGaussianBlur stdDeviation="2"/>
<feComposite in2="hardAlpha" operator="arithmetic" k2="-1" k3="1"/>
<feColorMatrix type="matrix" values="0 0 0 0 0 0 0 0 0 0 0 0 0 0 0 0 0 0 0.25 0"/>
<feBlend mode="normal" in2="shape" result="effect1_innerShadow_343_141"/>
</filter>
</defs>
</svg>
