<svg width="40" height="41" viewBox="0 0 40 41" fill="none" xmlns="http://www.w3.org/2000/svg">
<rect y="0.984375" width="40" height="40" rx="20" fill="#4A9396"/>
<path d="M10.1124 18.7529C12.6774 24.3419 17.235 28.7717 22.8927 31.1747L23.8012 31.5798C24.8073 32.028 25.9392 32.1066 26.9975 31.8016C28.0558 31.4967 28.9725 30.8278 29.5862 29.9127L30.7739 28.1428C30.9598 27.8652 31.035 27.528 30.9848 27.1977C30.9346 26.8674 30.7626 26.5679 30.5027 26.3581L26.4786 23.1096C26.3385 22.9966 26.1769 22.913 26.0037 22.864C25.8305 22.815 25.6492 22.8015 25.4706 22.8243C25.292 22.8472 25.1199 22.9059 24.9646 22.997C24.8093 23.088 24.674 23.2096 24.5668 23.3543L23.3216 25.0347C20.1253 23.4551 17.5382 20.8659 15.9602 17.6674L17.6382 16.4215C17.7828 16.3142 17.9043 16.1788 17.9953 16.0234C18.0863 15.868 18.145 15.6958 18.1678 15.5171C18.1907 15.3385 18.1772 15.157 18.1282 14.9837C18.0792 14.8104 17.9957 14.6487 17.8827 14.5085L14.6362 10.482C14.4265 10.2219 14.1272 10.0498 13.7971 9.99957C13.4669 9.94934 13.13 10.0246 12.8526 10.2106L11.0717 11.4057C10.1517 12.023 9.4806 12.9471 9.17794 14.0133C8.87528 15.0795 8.96071 16.2186 9.41902 17.2276L10.1124 18.7529Z" fill="white"/>
</svg>
