<svg width="30" height="33" viewBox="0 0 30 33" fill="none" xmlns="http://www.w3.org/2000/svg">
<path fill-rule="evenodd" clip-rule="evenodd" d="M10.0975 22.1843C14.8014 26.8882 19.1603 27.4032 20.4399 27.451C21.9863 27.5072 23.5644 26.2447 24.2471 24.9516C23.1583 23.6744 21.7404 22.6835 20.1879 21.6093C19.2716 22.5244 18.1424 24.2249 16.6389 23.6157C15.7838 23.2719 13.6722 22.2993 11.8274 20.4532C9.98127 18.6084 9.00991 16.4968 8.66369 15.6429C8.05445 14.1369 9.75984 13.0053 10.6762 12.089C9.60203 10.5108 8.62822 9.05624 7.35346 8.02248C6.04199 8.70758 4.77213 10.2735 4.82963 11.8406C4.87734 13.1203 5.39238 17.4792 10.0975 22.1843ZM20.3494 29.8965C18.5877 29.8317 13.5951 29.1417 8.36641 23.9142C3.13892 18.6855 2.45015 13.6941 2.38409 11.9312C2.28622 9.24464 4.34394 6.63517 6.72097 5.6161C7.00721 5.4925 7.32067 5.44544 7.63059 5.47954C7.94051 5.51364 8.23623 5.62773 8.48875 5.81062C10.4559 7.24564 11.8127 9.41958 12.9786 11.1225C13.2211 11.4766 13.3322 11.9044 13.2927 12.3318C13.2531 12.7591 13.0654 13.1593 12.762 13.4628L11.1031 15.123C11.4885 15.9732 12.2727 17.4388 13.5572 18.7234C14.8418 20.0079 16.3074 20.7921 17.1588 21.1775L18.8165 19.5186C19.1213 19.2145 19.5231 19.0271 19.9518 18.9889C20.3806 18.9506 20.8092 19.0641 21.163 19.3094C22.9001 20.5132 24.9407 21.8503 26.4284 23.7551C26.6261 24.0095 26.7519 24.3123 26.7926 24.6319C26.8332 24.9514 26.7873 25.2761 26.6596 25.5718C25.6356 27.9611 23.0445 29.9956 20.3494 29.8965Z" fill="white"/>
</svg>
