<svg width="40" height="41" viewBox="0 0 40 41" fill="none" xmlns="http://www.w3.org/2000/svg">
<g clip-path="url(#clip0_50_126)">
<g clip-path="url(#clip1_50_126)">
<path d="M1.11964 20.7449C1.11872 24.1057 1.99142 27.3873 3.65086 30.2797L0.960938 40.1622L11.0119 37.5104C13.7918 39.0332 16.9066 39.8311 20.0718 39.8313H20.0801C30.529 39.8313 39.0347 31.2758 39.0392 20.76C39.0412 15.6643 37.0708 10.8727 33.4909 7.26774C29.9116 3.66309 25.1513 1.67689 20.0793 1.67456C9.62917 1.67456 1.12411 10.2296 1.11979 20.7449" fill="url(#paint0_linear_50_126)"/>
<path d="M0.442697 20.7388C0.441619 24.2205 1.34561 27.6194 3.06421 30.6154L0.277832 40.8521L10.6892 38.1053C13.5578 39.6791 16.7876 40.5089 20.0742 40.5101H20.0826C30.9064 40.5101 39.7177 31.6469 39.7223 20.7546C39.7241 15.4758 37.6829 10.512 33.9751 6.77786C30.2669 3.04422 25.3363 0.986546 20.0826 0.984375C9.25699 0.984375 0.447012 9.84639 0.442697 20.7388ZM6.64303 30.0994L6.25428 29.4785C4.62011 26.8639 3.75757 23.8425 3.7588 20.74C3.76219 11.6865 11.0847 4.32081 20.0888 4.32081C24.4493 4.32267 28.5472 6.03306 31.6294 9.13631C34.7114 12.2399 36.4074 16.3655 36.4063 20.7534C36.4023 29.8069 29.0797 37.1735 20.0826 37.1735H20.0762C17.1467 37.172 14.2735 36.3803 11.7679 34.8844L11.1716 34.5286L4.99329 36.1585L6.64303 30.0994Z" fill="url(#paint1_linear_50_126)"/>
<path d="M15.174 12.4801C14.8064 11.658 14.4195 11.6414 14.0699 11.627C13.7836 11.6146 13.4564 11.6155 13.1294 11.6155C12.8021 11.6155 12.2704 11.7394 11.821 12.2332C11.371 12.7274 10.1033 13.9219 10.1033 16.3512C10.1033 18.7806 11.8618 21.1284 12.1069 21.4581C12.3524 21.7873 15.5018 26.9321 20.4896 28.9113C24.635 30.5561 25.4786 30.229 26.3783 30.1465C27.2781 30.0643 29.2817 28.9524 29.6905 27.7994C30.0996 26.6465 30.0996 25.6583 29.977 25.4518C29.8543 25.246 29.527 25.1225 29.0363 24.8756C28.5454 24.6287 26.1328 23.4341 25.6831 23.2693C25.2331 23.1046 24.906 23.0225 24.5788 23.5169C24.2515 24.0105 23.3118 25.1225 23.0253 25.4518C22.7392 25.7818 22.4528 25.8229 21.9622 25.576C21.4711 25.3282 19.8907 24.8074 18.0157 23.1254C16.5569 21.8166 15.572 20.2003 15.2857 19.7059C14.9995 19.2122 15.2551 18.9446 15.5012 18.6986C15.7216 18.4774 15.992 18.122 16.2377 17.8338C16.4823 17.5454 16.564 17.3397 16.7276 17.0104C16.8914 16.6808 16.8094 16.3924 16.6869 16.1454C16.564 15.8984 15.6104 13.4564 15.174 12.4801Z" fill="white"/>
</g>
</g>
<defs>
<linearGradient id="paint0_linear_50_126" x1="1904.87" y1="3850.43" x2="1904.87" y2="1.67456" gradientUnits="userSpaceOnUse">
<stop stop-color="#1FAF38"/>
<stop offset="1" stop-color="#60D669"/>
</linearGradient>
<linearGradient id="paint1_linear_50_126" x1="1972.5" y1="3987.76" x2="1972.5" y2="0.984375" gradientUnits="userSpaceOnUse">
<stop stop-color="#F9F9F9"/>
<stop offset="1" stop-color="white"/>
</linearGradient>
<clipPath id="clip0_50_126">
<rect width="39.4444" height="40" fill="white" transform="translate(0.277832 0.984375)"/>
</clipPath>
<clipPath id="clip1_50_126">
<rect width="39.4444" height="40" fill="white" transform="translate(0.277832 0.984375)"/>
</clipPath>
</defs>
</svg>
